<svg width="150" height="49" viewBox="0 0 150 49" fill="none" xmlns="http://www.w3.org/2000/svg">
<g id="logo-colored" clip-path="url(#clip0_4295_117)">
<path id="Fill-36" fill-rule="evenodd" clip-rule="evenodd" d="M26.5299 0C25.4317 0.0158116 24.3385 0.411667 23.4611 1.18418C23.4129 1.22935 23.4028 1.30672 23.4393 1.36375C23.4639 1.40046 23.5021 1.42248 23.5407 1.42643C23.5497 1.42643 23.5587 1.42474 23.5648 1.42474C25.0157 1.41119 26.3006 1.94596 27.0592 2.76929C26.5411 2.75856 26.0203 2.95395 25.6302 3.35602C24.6878 4.32335 24.7023 5.87571 25.6627 6.82497C26.8613 8.01028 28.7875 7.99164 29.9671 6.78375C31.4392 5.27374 31.4151 2.84722 29.916 1.36488C29.0107 0.470396 27.8401 0.0163763 26.6662 0H26.5299ZM16.1165 2.93531C16.0896 2.98953 16.1048 3.05672 16.1535 3.09456C16.186 3.11771 16.223 3.12392 16.2595 3.11545C16.2656 3.11263 16.2718 3.10981 16.2797 3.10698C17.5052 2.64449 18.7593 2.6987 19.654 3.16063C19.21 3.31366 18.8288 3.6395 18.6219 4.10255C18.119 5.21558 18.6068 6.52794 19.7112 7.03391C21.092 7.66751 22.7211 7.05142 23.349 5.66169C24.135 3.92298 23.372 1.87142 21.6464 1.0814C21.0724 0.818816 20.4708 0.694582 19.8799 0.694017C18.3523 0.694017 16.8885 1.523 16.1165 2.93531ZM31.0569 1.95273C30.9896 1.98097 30.9509 2.05664 30.9689 2.12949C30.9795 2.17579 31.0115 2.21306 31.0502 2.2317C31.0597 2.23621 31.067 2.23678 31.0754 2.24073C32.5812 2.7772 33.7086 3.81681 34.1851 4.95525C33.6525 4.748 33.0426 4.75309 32.4893 5.02075C31.1528 5.66338 30.5871 7.27504 31.2273 8.61903C32.0245 10.3013 34.0242 11.0128 35.6932 10.2092C37.4485 9.365 38.3527 7.44558 37.9995 5.60861C38.0046 5.61087 38.0091 5.61482 38.0141 5.61877C39.3361 6.71373 40.0918 8.17799 40.1568 9.49996C39.6988 9.09507 39.0815 8.87653 38.4251 8.94034C36.8464 9.09394 35.6909 10.508 35.8445 12.097C36.0363 14.0842 37.791 15.5394 39.7638 15.3474C40.0632 15.3175 40.3552 15.2582 40.6333 15.1741C40.0525 15.5349 39.6029 16.1132 39.4173 16.8326C38.9464 18.6775 40.0475 20.5585 41.8784 21.034C43.5906 21.479 45.3296 20.8132 46.3426 19.4861C46.3426 19.4895 46.3398 19.4946 46.3398 19.4997C46.3421 19.5081 46.3449 19.5161 46.3449 19.5245C46.6173 20.9961 46.3112 22.3955 45.62 23.312C45.5404 22.784 45.25 22.2916 44.7785 21.9646C43.6444 21.1797 42.0915 21.4699 41.3117 22.6163C40.9815 23.1008 40.8043 23.6468 40.7701 24.1946C40.7045 25.2596 41.1805 26.3326 42.1178 26.982C43.891 28.2074 46.3163 27.7533 47.5356 25.9655C47.9123 25.4132 48.1607 24.8113 48.2868 24.1946C48.6484 22.4339 48.0222 20.5545 46.5685 19.376C46.5315 19.3461 46.4805 19.3416 46.4379 19.3557C46.7322 18.9378 46.9582 18.4612 47.0927 17.9355C47.7851 15.2356 46.3073 12.4929 43.7638 11.5464C43.821 11.1799 43.8339 10.7993 43.798 10.4131C43.5115 7.45461 41.0028 5.26245 38.0999 5.3223C38.0371 5.32456 37.9827 5.36522 37.9597 5.42339C37.893 5.13991 37.7955 4.85925 37.6654 4.58593C36.769 2.69475 34.8977 1.59584 32.9478 1.59584C32.316 1.59584 31.6753 1.71161 31.0569 1.95273ZM43.6489 12.0795C44.3182 13.4015 44.4662 14.8098 44.1259 15.9206C43.8445 15.4073 43.3641 15.0069 42.7558 14.8494C42.3118 14.7342 41.8639 14.737 41.4462 14.8347C42.5175 14.2581 43.3164 13.2597 43.6489 12.0795ZM9.76364 6.96389C9.75747 7.01866 9.79055 7.07231 9.84437 7.08812C9.87857 7.09885 9.91333 7.09208 9.9408 7.07288C9.94584 7.06949 9.94921 7.06441 9.95537 7.05989C10.8585 6.28229 11.9422 5.9367 12.847 6.05133C12.5179 6.32069 12.2948 6.71824 12.2606 7.17678C12.1737 8.28303 12.9939 9.2498 14.0921 9.33676C15.4651 9.44292 16.6637 8.41065 16.7708 7.02714C16.9042 5.30085 15.6221 3.79027 13.9083 3.65474C13.8062 3.64627 13.7036 3.64232 13.6033 3.64232C11.6882 3.64232 10.0585 5.05859 9.76364 6.96389ZM7.54417 8.33555C5.51026 8.90533 4.28868 10.9591 4.69064 13.0113C4.70241 13.066 4.75455 13.1056 4.81061 13.1005C4.84705 13.0999 4.87957 13.0819 4.89863 13.0536C4.90199 13.0474 4.90536 13.0423 4.90872 13.0355C5.51082 11.9615 6.44032 11.2426 7.35748 11.0326C7.13156 11.4092 7.05475 11.8734 7.18033 12.3308C7.48418 13.432 8.61662 14.0763 9.71038 13.7708C11.0772 13.3874 11.8749 11.9615 11.4954 10.5853C11.1013 9.15436 9.80961 8.21752 8.40359 8.21752C8.11936 8.21752 7.83064 8.25536 7.54417 8.33555ZM26.5871 9.7281C24.7472 10.347 23.756 12.3489 24.3704 14.2005C24.8604 15.6823 26.4503 16.4814 27.9225 15.9867C29.0987 15.5925 29.7333 14.3106 29.3409 13.1242C29.1766 12.6324 28.8251 12.2585 28.3923 12.0564C29.3515 11.6831 30.6303 11.7627 31.8266 12.3652C31.835 12.3686 31.8418 12.3715 31.8479 12.3754C31.8821 12.3884 31.9214 12.3856 31.9561 12.3652C32.0099 12.3331 32.0324 12.2647 32.0105 12.2083C31.3142 10.5424 29.6991 9.50052 27.9707 9.49996C27.5121 9.49996 27.0463 9.57393 26.5871 9.7281ZM18.0989 11.5295C17.231 12.8029 17.5483 14.5439 18.8125 15.4208C19.8222 16.1205 21.2063 15.863 21.9015 14.8449C22.4582 14.0311 22.2547 12.917 21.4452 12.3556C21.1088 12.1236 20.7096 12.0564 20.3396 12.1365C20.7691 11.4397 21.6162 10.8761 22.6572 10.683C22.6634 10.6802 22.6695 10.6802 22.674 10.6802C22.7021 10.6717 22.7273 10.6508 22.7385 10.6203C22.757 10.5751 22.7396 10.5215 22.6993 10.4961C22.1532 10.1759 21.5511 10.0217 20.9535 10.0217C19.8525 10.0217 18.771 10.5475 18.0989 11.5295ZM29.9755 16.2312C29.4418 17.8366 30.3001 19.577 31.8978 20.1163C33.1743 20.5472 34.5551 19.8549 34.984 18.5696C35.1617 18.0337 35.0978 17.478 34.8534 17.0184C35.9292 17.325 36.9854 18.2359 37.6318 19.5454C37.6357 19.5539 37.6391 19.5612 37.6436 19.5691C37.6643 19.6013 37.7007 19.6273 37.7439 19.6307C37.8112 19.6375 37.8757 19.5945 37.893 19.5302C38.4957 17.1234 37.1749 14.6145 34.7979 13.8114C34.3965 13.6759 33.9883 13.611 33.5864 13.611C31.9948 13.611 30.5092 14.6246 29.9755 16.2312ZM15.3659 13.6296C13.6044 13.8436 12.269 15.387 12.3464 17.2025C12.4125 18.7272 13.6935 19.9102 15.2066 19.8447C16.4187 19.7916 17.3588 18.7616 17.305 17.5407C17.2647 16.5649 16.445 15.8088 15.4763 15.8495C15.0749 15.8675 14.7189 16.0527 14.4756 16.3379C14.4016 15.531 14.7374 14.58 15.4449 13.8035C15.4494 13.7979 15.4533 13.7934 15.4578 13.7906C15.4729 13.7668 15.4802 13.7358 15.4729 13.7064C15.4617 13.6607 15.4197 13.6296 15.3743 13.6296C15.3709 13.6296 15.3692 13.6296 15.3659 13.6296ZM2.97516 14.6873C1.05001 16.0731 0.543777 18.7091 1.74854 20.716C1.78217 20.7691 1.85113 20.7911 1.91112 20.7646C1.94868 20.7482 1.97447 20.716 1.98568 20.6799C1.9868 20.6731 1.9868 20.6652 1.98904 20.6579C2.21553 19.293 2.92078 18.1755 3.80543 17.5995C3.71181 18.0834 3.80599 18.6035 4.11377 19.0372C4.85322 20.0802 6.29288 20.3213 7.32777 19.577C8.62111 18.6447 8.9216 16.8343 7.99602 15.5315C7.29301 14.5399 6.18692 14.0119 5.06401 14.0119C4.3397 14.0119 3.60866 14.2305 2.97516 14.6873ZM10.6898 20.0762C9.01634 21.4343 8.62896 23.8818 9.86511 25.6956C10.9028 27.2203 12.9726 27.6065 14.484 26.5601C15.6955 25.7255 16.0016 24.0574 15.1725 22.8393C14.5076 21.8635 13.1839 21.6156 12.2152 22.2859C11.8138 22.5626 11.566 22.9839 11.4971 23.4334C10.9101 22.6524 10.6472 21.4586 10.8798 20.2027C10.8809 20.1965 10.8821 20.1897 10.8821 20.1824C10.8854 20.148 10.8742 20.1112 10.8462 20.0858C10.8238 20.0644 10.7924 20.0525 10.7615 20.0525C10.7357 20.0525 10.71 20.0604 10.6898 20.0762ZM0.840342 22.4011C-0.591467 24.5052 -0.142415 27.3428 1.79787 28.9183C1.85057 28.9584 1.93018 28.9539 1.97951 28.907C2.01034 28.8771 2.02548 28.8347 2.02268 28.7941C2.021 28.7867 2.01987 28.7788 2.01931 28.7715C1.74854 27.3151 2.05295 25.9305 2.73522 25.0253C2.81539 25.5465 3.10018 26.0344 3.56773 26.3563C4.68952 27.1339 6.22336 26.8459 6.99477 25.7131C7.95846 24.3002 7.60079 22.3678 6.19757 21.3982C5.531 20.9374 4.77193 20.7166 4.02071 20.7166C2.79352 20.716 1.58764 21.305 0.840342 22.4011ZM33.8566 21.7788C33.046 22.339 32.6406 23.2724 32.7102 24.1946C32.7449 24.6497 32.8952 25.1015 33.1704 25.5041C33.8342 26.4811 35.1589 26.729 36.1282 26.0587C36.5307 25.7814 36.7785 25.3607 36.8464 24.9089C37.4361 25.6911 37.6985 26.8871 37.4658 28.1436C37.4642 28.1503 37.4636 28.1571 37.4608 28.1628C37.4597 28.2 37.4709 28.2356 37.4984 28.2616C37.5426 28.3022 37.6094 28.3056 37.6553 28.2689C38.8864 27.2722 39.4224 25.6865 39.1303 24.1946C39.0243 23.6547 38.8113 23.1279 38.4817 22.6451C37.837 21.6986 36.7959 21.1904 35.7369 21.1904C35.0883 21.1904 34.4324 21.3813 33.8566 21.7788ZM1.32864 30.4312C0.643566 33.1101 2.13424 35.832 4.68055 36.7298C4.61272 37.1155 4.59422 37.5165 4.63346 37.9264C4.91208 40.8262 7.37262 42.976 10.2189 42.9172C10.2783 42.9144 10.3293 42.8772 10.3545 42.8229C10.4229 43.1386 10.5261 43.452 10.6696 43.757C11.8587 46.2642 14.7604 47.3823 17.2905 46.3964C17.3594 46.3664 17.3986 46.2913 17.3801 46.2168C17.3695 46.1705 17.3387 46.1343 17.2989 46.1157C17.2899 46.1123 17.2826 46.1101 17.2736 46.1072C15.765 45.5691 14.6343 44.5266 14.1566 43.3882C14.6898 43.5943 15.3003 43.5887 15.857 43.3216C17.1968 42.6773 17.7619 41.0639 17.1223 39.7154C16.3228 38.0303 14.3209 37.316 12.6474 38.1224C10.9168 38.9547 10.0137 40.8262 10.3192 42.64C10.3147 42.6355 10.3097 42.6321 10.3018 42.6264C9.00737 41.5529 8.264 40.1186 8.20121 38.8215C8.65306 39.2173 9.25741 39.4342 9.89931 39.3709C11.446 39.2196 12.5802 37.8327 12.4305 36.2747C12.2427 34.3259 10.5216 32.8989 8.58859 33.0881C6.72735 33.271 5.25013 34.5947 4.77529 36.3063C4.05827 34.9719 3.89121 33.5319 4.2371 32.4065C4.51181 32.9108 4.98609 33.3032 5.58202 33.4574C7.01719 33.8312 8.48208 32.9599 8.8532 31.5137C9.31627 29.7049 8.23765 27.8606 6.44032 27.3942C6.08881 27.3033 5.73675 27.2598 5.38973 27.2598C3.52232 27.2598 1.81749 28.5247 1.32864 30.4312ZM46.3258 27.6878C46.2894 27.7036 46.2647 27.7336 46.2557 27.7703C46.2546 27.7771 46.2535 27.7838 46.2512 27.7906C46.0337 29.1047 45.3559 30.1787 44.5032 30.7333C44.5924 30.2685 44.501 29.7671 44.2061 29.3509C43.4941 28.3468 42.11 28.1148 41.1132 28.8319C39.867 29.7281 39.5794 31.4708 40.4696 32.7261C41.5813 34.2937 43.7442 34.6568 45.2999 33.537C47.1555 32.2026 47.6421 29.666 46.4816 27.7353C46.4587 27.6986 46.4177 27.6777 46.3751 27.6777C46.3589 27.6777 46.342 27.6805 46.3258 27.6878ZM13.3415 29.7546C13.1593 30.2973 13.2249 30.8654 13.4727 31.333C12.3795 31.0213 11.3025 30.0929 10.6438 28.7591C10.6399 28.7512 10.6365 28.7455 10.6337 28.7371C10.6102 28.702 10.5749 28.6772 10.53 28.6732C10.4627 28.6653 10.3971 28.7099 10.3792 28.7743C9.76532 31.2263 11.1097 33.7815 13.5287 34.5975C15.5598 35.2831 17.7586 34.1813 18.4386 32.136C18.9829 30.4989 18.1084 28.728 16.482 28.1791C16.2214 28.0899 15.9551 28.0487 15.6933 28.0487C14.6561 28.0487 13.6891 28.7088 13.3415 29.7546ZM33.6845 28.505C32.4747 28.558 31.5368 29.5858 31.5895 30.8039C31.6304 31.7763 32.4483 32.5341 33.4148 32.4906C33.8162 32.4737 34.17 32.2879 34.4144 32.0038C34.4867 32.808 34.1526 33.7572 33.4446 34.5326C33.4412 34.5365 33.4384 34.5399 33.435 34.545C33.4171 34.5681 33.4115 34.5998 33.4188 34.6291C33.43 34.6766 33.4771 34.7088 33.5242 34.7031C35.2806 34.4919 36.6131 32.9537 36.5352 31.141C36.4713 29.6603 35.2598 28.5027 33.8017 28.5027C33.763 28.5027 33.7237 28.5038 33.6845 28.505ZM21.3342 32.1269C21.032 32.1269 20.7253 32.1761 20.4243 32.2772C19.2145 32.6826 18.5642 33.9967 18.9667 35.213C19.1349 35.7173 19.4953 36.1013 19.9405 36.3074C18.9572 36.6914 17.6459 36.6101 16.4187 35.9912C16.4097 35.9884 16.4041 35.985 16.3968 35.9805C16.3621 35.9686 16.32 35.9703 16.287 35.9912C16.2315 36.0239 16.2085 36.0945 16.2309 36.1521C17.1352 38.3144 19.5469 39.4506 21.7922 38.6955C23.6753 38.0614 24.6939 36.0081 24.0655 34.1102C23.6618 32.8949 22.5384 32.1269 21.3342 32.1269ZM26.3909 33.428C25.814 34.2711 26.0265 35.4248 26.8635 36.0059C27.2111 36.247 27.6259 36.3165 28.0072 36.2335C27.5631 36.954 26.6875 37.5379 25.6083 37.7373C25.6027 37.7389 25.5965 37.7401 25.5915 37.7412C25.5623 37.7502 25.5371 37.7717 25.5242 37.8011C25.5046 37.8491 25.5236 37.9055 25.5657 37.9309C27.1746 38.8734 29.2568 38.4279 30.3281 36.8608C31.2279 35.5428 30.8977 33.7403 29.5886 32.834C29.1901 32.5578 28.7365 32.4251 28.2869 32.4251C27.5559 32.4251 26.8372 32.7758 26.3909 33.428ZM38.7424 34.7251C37.4681 35.0809 36.7213 36.4113 37.0762 37.6955C37.5197 39.2992 39.169 40.2389 40.7623 39.7922C42.6594 39.2608 43.7985 37.347 43.4235 35.4333C43.4117 35.3808 43.3641 35.3446 43.3097 35.3474C43.2755 35.3491 43.2463 35.3678 43.2273 35.3937C43.225 35.3994 43.2228 35.4045 43.2205 35.409C42.6566 36.4113 41.7904 37.0822 40.936 37.2787C41.1463 36.9269 41.218 36.4927 41.1009 36.0686C40.8654 35.213 40.0946 34.654 39.2559 34.654C39.0866 34.654 38.9133 34.6766 38.7424 34.7251ZM31.7072 41.3248C31.5799 42.9839 32.8094 44.4346 34.4565 44.5639C36.4186 44.7181 38.1375 43.312 38.4351 41.3863C38.4424 41.335 38.4099 41.283 38.3578 41.2678C38.3247 41.2576 38.2905 41.2632 38.267 41.2824C38.2608 41.2858 38.2563 41.2887 38.2513 41.2937C37.3846 42.0414 36.3435 42.3734 35.4734 42.2639C35.7896 42.0058 36.0049 41.6235 36.0402 41.1819C36.122 40.1197 35.3344 39.1925 34.2799 39.1089C34.216 39.1038 34.1526 39.1021 34.0893 39.1021C32.852 39.1021 31.8053 40.0616 31.7072 41.3248ZM18.3422 41.5191C16.8537 43.0483 16.8745 45.5041 18.3932 47.0046C20.2006 48.7924 23.0508 48.8387 24.9266 47.1875C24.9765 47.1418 24.986 47.0644 24.9468 47.0057C24.9255 46.9695 24.8857 46.9475 24.8459 46.9436H24.8212C23.3524 46.9577 22.0529 46.4173 21.2848 45.5826C21.8084 45.5939 22.3343 45.3969 22.7312 44.9897C23.6848 44.0111 23.6697 42.4384 22.6993 41.479C22.0994 40.8866 21.319 40.5907 20.5403 40.5907C19.7426 40.5907 18.9454 40.9007 18.3422 41.5191ZM24.9664 42.6654C24.1748 44.4182 24.944 46.4845 26.6841 47.2824C28.7567 48.2311 31.178 47.3874 32.2572 45.4127C32.2863 45.3601 32.2701 45.2901 32.2202 45.2534C32.1893 45.2303 32.1501 45.2246 32.1153 45.2325C32.1103 45.2342 32.1024 45.2382 32.0946 45.2404C30.8584 45.7069 29.5965 45.6527 28.6945 45.1856C29.1402 45.0326 29.5231 44.7028 29.7333 44.2375C30.2401 43.1143 29.7479 41.7912 28.6334 41.2824C28.2617 41.1113 27.872 41.03 27.4886 41.03C26.4363 41.03 25.4306 41.6376 24.9664 42.6654Z" fill="url(#paint0_linear_4295_117)"/>
<g id="Union">
<path d="M126.428 9.11603L129.515 8.34747L129.596 8.4158L129.596 21.7969H127.727V10.1302L126.428 9.29786V9.11603Z" fill="#006648"/>
<path fill-rule="evenodd" clip-rule="evenodd" d="M132.027 21.2246C131.662 20.848 131.434 20.3804 131.33 19.8106L131.33 19.8093C131.33 19.8085 131.329 19.8078 131.329 19.8067C131.233 19.4565 131.297 18.7891 131.337 18.4587C131.342 18.3864 131.35 18.3192 131.364 18.2628V18.2616H131.61C131.61 18.2616 131.741 20.4182 133.469 20.447H136.935C137.233 19.8287 137.392 18.81 137.392 18.0663C137.392 16.7279 136.639 14.9999 135.129 14.9999L135.003 13.6503C137.439 13.7192 139.246 15.9492 139.246 18.4096C139.246 18.6614 139.231 18.9302 139.201 19.2092C139.257 19.4419 139.332 19.6542 139.446 19.8287C139.57 20.0235 139.743 20.172 139.96 20.2867C140.165 20.3894 140.429 20.447 140.726 20.447H142.727V13.6503H145.757C148.194 13.7192 150 15.9492 150 18.4096C150 19.4396 149.749 20.7785 149.325 21.7972H141.149C140.566 21.7972 140.109 21.5906 139.754 21.2246C139.424 20.8835 139.206 20.4674 139.091 19.9682C138.975 20.6063 138.798 21.2472 138.57 21.7972H133.423C132.839 21.7972 132.382 21.5906 132.027 21.2246ZM145.883 14.9999H144.626V20.447H147.69C147.988 19.8287 148.148 18.81 148.148 18.0663C148.148 16.7279 147.393 14.9999 145.883 14.9999Z" fill="#006648"/>
<path d="M125.142 23.8839C125.143 23.8807 125.144 23.8787 125.145 23.8764C125.146 23.8747 125.147 23.8728 125.147 23.8704C125.161 23.8178 125.174 23.7551 125.184 23.6874C125.196 23.6117 125.206 23.5344 125.21 23.4519C125.234 23.1752 125.237 22.8844 125.237 22.776C125.246 22.3253 125.246 21.7934 125.246 21.7934V13.7035L125.155 13.6357L122.092 14.3986V14.581L123.378 15.401V22.8426C123.378 22.9725 123.371 23.0888 123.36 23.195C123.36 23.195 123.312 23.5456 123.2 23.7828C123.031 24.1024 122.607 24.6208 121.547 25.0189V25.3154H122.941C122.941 25.3154 124.751 25.3888 125.142 23.8839Z" fill="#006648"/>
<path d="M103.687 25.1227L103.692 25.1199C102.785 24.8601 102.043 24.3253 101.538 23.594C101.449 23.4455 100.974 22.6448 100.986 21.4984C100.986 21.4883 100.987 21.4809 100.989 21.4725C101.019 19.4593 102.535 17.9493 104.541 17.9493C105.659 17.9493 106.485 18.4637 106.568 19.1888C106.576 19.2408 106.582 19.2944 106.582 19.3492C106.582 19.8219 106.279 20.2234 105.855 20.3753C105.739 20.4187 105.616 20.4436 105.484 20.4436C104.751 20.4436 104.356 19.8348 104.356 19.2622C104.356 19.0115 104.416 18.7546 104.526 18.5219C103.497 18.5727 102.44 19.3114 102.44 21.2652V21.3053C102.44 21.3053 102.437 21.4363 102.448 21.6328L102.45 21.6312V21.6594C102.453 21.713 102.457 21.7706 102.464 21.8311C102.529 22.4087 102.911 23.9713 105.018 23.9713H105.672L106.946 23.969C107.266 23.969 107.482 23.8894 107.596 23.7188C107.71 23.559 107.767 23.2631 107.767 22.8407V15.3991L106.479 14.5786V14.3956L109.544 13.6322L109.635 13.7005V18.9409C109.645 19.007 109.657 19.0725 109.671 19.1369C109.727 19.3989 109.818 19.6383 109.944 19.8314C110.058 20.0257 110.228 20.1731 110.445 20.2883C110.65 20.3911 110.913 20.447 111.22 20.447H112.051C112.371 20.447 112.587 20.3673 112.689 20.1974C112.803 20.037 112.86 19.7405 112.86 19.3198V15.3991L111.584 14.5786V14.3956L114.659 13.6322L114.739 13.7005V18.2706C114.739 18.5902 114.774 18.8754 114.831 19.1369C114.875 19.3989 114.967 19.6383 115.093 19.8314C115.218 20.0257 115.389 20.1731 115.594 20.2883C115.81 20.3911 116.072 20.447 116.368 20.447H117.063C117.405 20.447 117.632 20.3673 117.735 20.1974C117.849 20.037 117.894 19.7298 117.894 19.2854V15.3991L116.618 14.5786V14.3956L119.694 13.6322L119.774 13.7005V18.2706C119.774 18.2706 119.79 19.055 119.754 19.6276L119.755 19.627C119.755 19.627 119.754 19.6388 119.752 19.6599L119.75 19.6828L119.747 19.7168C119.747 19.729 119.745 19.7418 119.744 19.7542L119.743 19.7682C119.743 19.7603 119.743 19.7547 119.743 19.753C119.721 19.9625 119.659 20.3916 119.506 20.6971L119.505 20.6937C119.405 20.9049 119.274 21.0845 119.114 21.2449C118.931 21.416 118.692 21.5538 118.396 21.6436C118.111 21.7351 117.758 21.7927 117.348 21.7927H116.904C116.323 21.7927 115.833 21.6103 115.434 21.2449C115.035 20.892 114.796 20.4137 114.706 19.8094C114.626 20.4018 114.42 20.8801 114.067 21.2449C113.725 21.6103 113.133 21.7927 112.302 21.7927H111.789C111.197 21.7927 110.695 21.6103 110.297 21.2568C109.973 20.9767 109.757 20.6175 109.635 20.1748V21.7927C109.635 21.7927 109.635 22.4217 109.623 22.891C109.626 23.0694 109.618 23.8945 109.24 24.4326C109.162 24.5518 109.073 24.6636 108.963 24.7669C108.781 24.9375 108.542 25.0747 108.256 25.1662C107.959 25.2577 107.607 25.3141 107.197 25.3141H105.387C105.081 25.3141 104.806 25.3011 104.55 25.2757C104.456 25.2673 104.374 25.2565 104.297 25.2464C104.295 25.2458 104.293 25.2458 104.293 25.2458H104.291C103.879 25.1882 103.687 25.1227 103.687 25.1227Z" fill="#006648"/>
<path fill-rule="evenodd" clip-rule="evenodd" d="M57.9544 21.6053C57.9544 21.6053 58.1451 21.6714 58.5577 21.7278H58.56C58.5612 21.7278 58.5622 21.7282 58.5632 21.7285L58.5644 21.7288L58.5656 21.729C58.6412 21.7391 58.7236 21.7493 58.8167 21.7589C59.0735 21.7837 59.3478 21.7962 59.6543 21.7962H60.4478V21.795H65.4257C66.9405 21.795 67.8175 21.2603 67.9993 19.8118C68.1133 20.3822 68.3418 20.8497 68.7059 21.2264C68.7538 21.2766 68.8137 21.3235 68.882 21.3676C69.0027 21.4562 69.5378 21.795 70.6186 21.795H72.3608C72.7706 21.795 73.1233 21.7386 73.4196 21.6476C73.704 21.5556 73.9433 21.4189 74.1256 21.2478C74.3198 21.0654 74.4569 20.8605 74.5585 20.6222C74.6612 20.3822 74.7301 20.1083 74.764 19.8118C74.8548 20.4285 75.0941 20.9062 75.5044 21.2603C75.9023 21.6132 76.4041 21.795 76.9961 21.795H77.5085C78.3404 21.795 78.9331 21.6132 79.2745 21.2478C79.6278 20.883 79.8321 20.4053 79.9117 19.8118C80.0037 20.4166 80.2424 20.8949 80.642 21.2478C81.0399 21.6132 81.5298 21.795 82.1105 21.795H82.5547C82.965 21.795 83.3177 21.7386 83.6022 21.6476C83.8985 21.5556 84.1383 21.4189 84.3206 21.2478C84.5029 21.0654 84.6502 20.8605 84.753 20.6109C84.8562 20.3703 84.9127 20.097 84.9471 19.8118C85.0493 20.3822 85.2773 20.8497 85.6413 21.2264C85.9946 21.5906 86.4506 21.7945 87.0314 21.7945L87.0394 21.7948C87.0436 21.7949 87.049 21.795 87.0545 21.795H96.1496L96.1546 21.7973C96.1568 21.7907 96.1593 21.7845 96.1619 21.7781L96.1642 21.7724C96.583 20.7577 96.8296 19.4318 96.8296 18.4097C96.8296 15.9493 95.0219 13.7192 92.586 13.6498H89.557V20.4471L89.5762 20.451H86.6098C86.314 20.451 86.0516 20.394 85.8473 20.2912C85.6306 20.1766 85.4596 20.0292 85.3348 19.835C85.2084 19.6418 85.1294 19.4024 85.0718 19.1404C85.0154 18.8772 84.9804 18.5932 84.9804 18.273V13.7034L84.902 13.6351L81.8266 14.3986V14.581L83.1021 15.4021V19.2889C83.1021 19.7327 83.0559 20.0399 82.9424 20.1986C82.8397 20.3703 82.6123 20.451 82.2702 20.451H81.5755C81.2792 20.451 81.0173 20.394 80.8 20.2912C80.5957 20.1766 80.4253 20.0292 80.2994 19.835C80.1741 19.6418 80.0827 19.4024 80.0375 19.1404C79.9811 18.8772 79.9455 18.5932 79.9455 18.273V13.7034L79.8677 13.6351L76.7918 14.3986V14.581L78.0673 15.4021V19.3228C78.0673 19.7435 78.0108 20.0399 77.8957 20.1986C77.793 20.3703 77.5774 20.451 77.2585 20.451H76.4261C76.1185 20.451 75.8577 20.394 75.6517 20.2912C75.4356 20.1766 75.2651 20.0292 75.1517 19.835C75.0258 19.6418 74.935 19.4024 74.878 19.1404C74.8198 18.8772 74.7989 18.5932 74.7989 18.273V13.7034L74.7075 13.6351L71.6418 14.3986V14.581L72.9308 15.4021V19.3228C72.9308 19.7435 72.8727 20.0399 72.7581 20.1986C72.6447 20.3703 72.4285 20.451 72.1102 20.451H69.6969C68.3763 20.4166 68.0343 19.3905 68.0343 18.273V8.41615L67.9535 8.34782L64.8669 9.11525V9.29651L66.1656 10.1294V19.2889C66.1549 20.0292 66.0741 20.451 65.323 20.451H59.2824C57.1744 20.451 56.7929 18.8874 56.7291 18.3103C56.7229 18.2493 56.7172 18.1917 56.7144 18.1392V18.1109L56.7133 18.1126C56.7014 17.915 56.7048 17.7845 56.7048 17.7845C56.7052 17.7759 56.7051 17.767 56.705 17.7581L56.7048 17.7444C56.7048 15.7906 57.7614 15.0519 58.7902 15.0017C58.6824 15.231 58.622 15.4856 58.622 15.7347C58.622 16.3073 59.0177 16.9155 59.7514 16.9155C59.8829 16.9155 60.0059 16.8912 60.1199 16.8477C60.5443 16.6969 60.8491 16.2954 60.8491 15.8216C60.8491 15.7149 60.8327 15.6121 60.8039 15.5139C60.8022 15.5094 60.8017 15.5037 60.8 15.4986C60.7977 15.4924 60.7949 15.4856 60.7927 15.4794C60.5996 14.8543 59.8236 14.4279 58.8049 14.4279C56.7782 14.4279 55.251 15.969 55.251 18.0127C55.251 18.0255 55.2518 18.0378 55.2527 18.0501C55.2534 18.0601 55.2541 18.0701 55.2544 18.0804C55.2538 18.0883 55.2527 18.0962 55.2527 18.1053C55.2544 18.1838 55.2589 18.26 55.264 18.3345C55.2655 18.3494 55.2669 18.3642 55.2683 18.3788L55.2684 18.3798L55.2685 18.3807C55.2701 18.3977 55.2718 18.4148 55.2736 18.4317C55.282 18.5158 55.2922 18.5988 55.3046 18.6784C55.3078 18.6972 55.3113 18.7159 55.3149 18.7346L55.3189 18.7563C55.3208 18.7663 55.3226 18.7763 55.3243 18.7863C55.3407 18.8721 55.3593 18.954 55.3785 19.0325C55.3819 19.0438 55.3853 19.0557 55.3881 19.0675C55.5326 19.617 55.7471 19.9806 55.8041 20.0755C56.3098 20.8074 57.0474 21.3467 57.9544 21.6053ZM91.4714 15.0254H92.7243C93.9439 15.0254 94.6686 16.1571 94.9 17.2955C94.9514 17.5575 94.9773 17.819 94.9773 18.0663C94.9773 18.81 94.817 19.8282 94.5196 20.4471H91.4714V15.0254Z" fill="#006648"/>
<path fill-rule="evenodd" clip-rule="evenodd" d="M120.568 35.8023C120.568 33.6305 122.019 31.4321 124.796 31.4321C127.238 31.4321 128.756 33.0861 128.756 35.7487C128.756 37.9476 127.309 40.1742 124.547 40.1742C122.129 40.1742 120.568 38.4575 120.568 35.8023ZM122.522 35.8554C122.522 38.0984 123.386 39.5468 124.724 39.5468C126.043 39.5468 126.8 38.1616 126.8 35.7487C126.8 33.4385 125.979 32.0589 124.6 32.0589C123.319 32.0589 122.522 33.5136 122.522 35.8554Z" fill="#006648"/>
<path fill-rule="evenodd" clip-rule="evenodd" d="M133.963 31.4321C131.189 31.4321 129.737 33.6305 129.737 35.8023C129.737 38.4575 131.297 40.1742 133.715 40.1742C136.478 40.1742 137.924 37.9476 137.924 35.7487C137.924 33.0861 136.407 31.4321 133.963 31.4321ZM133.892 39.5468C132.554 39.5468 131.691 38.0984 131.691 35.8554C131.691 33.5136 132.487 32.0589 133.768 32.0589C135.146 32.0589 135.969 33.4385 135.969 35.7487C135.969 38.1616 135.212 39.5468 133.892 39.5468Z" fill="#006648"/>
<path d="M119.201 39.1319L119.2 39.1324V39.3222L120.371 39.6418V39.8869H116.363V39.6418L117.477 39.3233V39.133L117.475 39.1324V34.7758C117.475 33.5368 116.902 32.9089 115.77 32.9089C115.037 32.9089 114.493 33.05 113.853 33.4086L113.854 39.3233L114.946 39.6418V39.8869H110.94V39.6418L111.986 39.3555V28.2134L110.687 27.3816V27.1992L113.773 26.4306L113.853 26.4989V32.7784C114.847 31.8726 115.805 31.4322 116.779 31.4322C118.453 31.4322 119.201 32.7282 119.201 34.0128V39.1319Z" fill="#006648"/>
<path d="M141.16 26.4988L141.08 26.4305L137.993 27.199V27.3809L139.292 28.2127V39.3536L138.177 39.6405V39.885H142.33V39.6405L141.16 39.3215L141.16 26.4988Z" fill="#006648"/>
<path d="M105.523 36.3194C105.605 37.0456 106.075 39.1011 108.725 38.9977C109.443 38.9221 110.126 38.6894 110.831 38.3444L110.924 38.5833C110.076 39.5048 108.926 40.1413 107.77 40.165C107.745 40.1701 107.716 40.174 107.678 40.174C106.02 40.174 104.714 39.3174 104.081 37.9463C104.078 37.9383 104.074 37.93 104.07 37.9223L104.066 37.913C104.028 37.8288 103.992 37.7424 103.958 37.6543C103.958 37.6527 103.957 37.651 103.956 37.6494C103.956 37.6482 103.955 37.647 103.955 37.6458H103.955C103.765 37.1348 103.664 36.5628 103.664 35.9438C103.664 33.3716 105.587 31.4319 108.138 31.4319C109.623 31.4319 110.701 32.153 110.701 33.1458C110.701 33.8183 110.239 34.3265 109.627 34.3265C108.893 34.3265 108.498 33.7184 108.498 33.1458C108.498 32.8098 108.607 32.4625 108.795 32.1812C108.636 32.157 108.477 32.1479 108.262 32.1479C106.924 32.1479 105.494 33.0571 105.494 35.6073L105.494 35.6276C105.493 35.6374 105.493 35.6474 105.493 35.657L105.494 35.6564C105.494 35.6564 105.489 35.8213 105.504 36.0698L105.505 36.0675L105.505 36.0776C105.505 36.0837 105.505 36.0923 105.506 36.1031C105.509 36.1619 105.515 36.2246 105.52 36.2908L105.52 36.2914L105.523 36.3194Z" fill="#006648"/>
<path d="M146.909 34.6721L146.812 34.6331C145.907 34.2717 144.972 33.8984 144.972 32.9593C144.972 32.2168 145.537 31.9977 146.011 31.9434C147.165 31.8887 147.924 32.8413 148.082 33.0582C148.251 33.3066 148.419 33.5907 148.595 33.9188L148.906 33.8154L148.802 31.5301H148.801L148.8 31.5199L148.709 31.5018C148.281 31.4149 147.274 31.211 146.578 31.211C144.815 31.211 143.584 32.2845 143.584 33.8233C143.584 35.3107 144.756 35.924 145.962 36.4277C147.095 36.8388 147.896 37.1963 147.896 38.0411C147.896 38.787 147.451 39.3026 146.736 39.4274C146.716 39.4302 146.696 39.4336 146.678 39.4365L146.674 39.4365L146.671 39.4368L146.667 39.4373C146.666 39.4376 146.664 39.4378 146.663 39.4381C145.389 39.5844 144.565 38.4962 144.442 38.3223C144.244 37.9993 144.06 37.6142 143.899 37.1584H143.484V39.651C143.485 39.6516 143.488 39.6527 143.488 39.6527L143.559 39.6844C144.478 40.0938 145.187 40.174 146.099 40.174C148.063 40.174 149.381 39.009 149.381 37.2742C149.381 35.7023 147.954 35.1074 146.909 34.6721Z" fill="#006648"/>
<path d="M99.6347 32.9486C100.008 33.1033 100.395 33.2637 100.769 33.4455C102.269 34.1678 102.91 35.0425 102.91 36.3696C102.91 38.9807 100.665 40.1559 99.0697 40.1559L99.0652 40.1553C98.134 40.1389 97.0995 39.9193 96.4132 39.5754L95.6642 40.2135H95.3826L95.1574 36.1064L95.4565 36.0691C95.6795 36.5791 95.9035 37.0195 96.1282 37.4018C96.2755 37.6458 97.3591 39.3444 99.0652 39.4054V39.4043L99.0698 39.4043C99.1003 39.4049 99.1294 39.4054 99.16 39.4054C100.403 39.4054 101.238 38.577 101.238 37.3442C101.238 36.3955 100.938 35.8455 99.1674 35.0967L98.9687 35.0188L98.931 35.0039C98.4257 34.8047 97.9043 34.5991 97.4274 34.3677C96.131 33.729 95.5536 32.8379 95.5536 31.4798C95.5536 29.3594 97.2406 28.1814 98.9619 28.1249H98.9648C99.773 28.1481 100.618 28.339 101.209 28.6365L101.874 28.0702H102.124L102.323 31.7096L102.057 31.743C101.708 30.9428 101.355 30.3323 100.998 29.8715C100.309 29.0188 99.3356 28.8782 98.9828 28.8545C98.9741 28.8545 98.9614 28.8543 98.947 28.8541L98.8749 28.8527C98.8609 28.8524 98.8489 28.8523 98.8412 28.8523C97.8744 28.8523 97.2242 29.5734 97.2242 30.6463C97.2242 31.5464 97.6808 32.1111 98.8005 32.5928C99.0692 32.7154 99.3429 32.8283 99.6347 32.9486Z" fill="#006648"/>
<path d="M66.7669 28.3594L66.0852 30.2596L63.388 37.0925L60.6231 30.2613L59.9023 28.3594H55.9833L55.9844 28.36H55.9827V28.6609L57.3818 29.0161V37.0276H57.3829V39.0848L55.9827 39.5636V39.8861H59.6032V39.5636L58.203 39.0836V29.6763L58.2047 29.6785L62.4517 39.8832H63.0358L67.1033 29.6893V39.2525L65.3492 39.5721V39.8866H70.8655V39.5721L69.1125 39.2525L69.1131 28.9789L70.8655 28.6604V28.3594H66.7669Z" fill="#006648"/>
<path d="M72.3566 32.3775C72.3566 31.7196 72.913 31.2046 73.6253 31.2046C74.1428 31.2046 74.7005 31.6151 74.7005 32.282C74.7005 32.8947 74.1914 33.5515 73.4334 33.5515C72.8702 33.5515 72.3566 32.9924 72.3566 32.3775Z" fill="#006648"/>
<path d="M74.4095 34.2053L74.3293 34.137L71.2438 34.905V35.088L72.5414 35.9198V39.3317L71.3985 39.6846V39.8862H75.6607V39.6846L74.41 39.2978L74.4095 34.2053Z" fill="#006648"/>
<path d="M79.5073 34.6331L79.6043 34.6721L79.6064 34.6729C80.6503 35.1082 82.0769 35.7031 82.0769 37.2742C82.0769 39.009 80.7568 40.174 78.7944 40.174C77.8818 40.174 77.1741 40.0938 76.2536 39.6844L76.183 39.6527C76.1819 39.6522 76.1802 39.6516 76.1791 39.651V37.1584H76.5945C76.7548 37.6142 76.9382 37.9993 77.1368 38.3223C77.2599 38.4962 78.0861 39.5844 79.3588 39.4381C79.3628 39.437 79.369 39.4365 79.3729 39.4365L79.3961 39.4328C79.4076 39.431 79.4193 39.4291 79.4311 39.4274C80.1461 39.3026 80.5909 38.787 80.5909 38.0411C80.5909 37.1963 79.79 36.8388 78.6573 36.4277C77.4512 35.924 76.2795 35.3107 76.2795 33.8233C76.2795 32.2845 77.511 31.211 79.2736 31.211C79.9684 31.211 80.9737 31.4146 81.4038 31.5016L81.4047 31.5018L81.4956 31.5199L81.4961 31.5301H81.4973L81.6005 33.8154L81.2901 33.9188C81.1146 33.5907 80.9459 33.3066 80.7777 33.0582C80.6196 32.8413 79.86 31.8887 78.7064 31.9434C78.2317 31.9977 77.6662 32.2168 77.6662 32.9593C77.6662 33.8984 78.6014 34.2717 79.5073 34.6331Z" fill="#006648"/>
<path d="M90.0881 39.2322L87.4953 35.8886C89.1422 35.5724 90.3866 34.1245 90.3866 32.3846C90.3866 32.2276 90.377 32.0729 90.3567 31.9233C90.2185 30.9153 89.3549 30.1377 88.3103 30.1377C87.2092 30.1377 86.3095 30.9994 86.2469 32.0842H86.2508C86.2508 32.0869 86.2505 32.0899 86.25 32.0929C86.2496 32.0963 86.2491 32.0999 86.2491 32.1034C86.2491 32.61 86.6589 33.0199 87.1657 33.0199C87.6708 33.0199 88.0817 32.61 88.0817 32.1034C88.0817 31.5969 87.6708 31.1858 87.1657 31.1858C87.0816 31.1858 87.002 31.2005 86.9258 31.2214C87.1403 31.0022 87.4377 30.8656 87.7679 30.8656C88.356 30.8656 88.8391 31.2976 88.9283 31.8606L88.9317 31.8572C88.9317 31.8572 89.0022 32.1503 88.948 32.6009C88.948 32.6021 88.9477 32.603 88.9474 32.6038C88.9473 32.6042 88.9471 32.6045 88.9471 32.6049C88.947 32.6052 88.9469 32.6056 88.9469 32.606C88.9413 32.6579 88.9339 32.7099 88.9238 32.7652C88.8882 32.981 88.8261 33.1984 88.7347 33.413C88.7285 33.4282 88.7228 33.4435 88.7166 33.4587L88.7155 33.4553C88.2866 34.4232 87.2831 35.3002 85.6498 35.3335H85.0397V35.1342H85.038V26.501L84.9584 26.4321L81.8718 27.2007V27.3825L83.171 28.2143V39.3271L82.0174 39.6823V39.8867H86.086V39.6823L85.0391 39.3011L85.0385 35.9473H85.6216L87.997 39.2762L87.1866 39.6823V39.8867H90.9736V39.6823L90.1942 39.3705L90.0881 39.2322Z" fill="#006648"/>
<path d="M62.886 10.8639C62.2968 10.9836 61.7115 11.3586 61.7115 11.9905V12.6393H63.5858V13.6309H60.9925C60.9846 13.6309 60.9755 13.6304 60.9755 13.6304C60.5489 13.6304 60.2131 13.4796 59.9535 13.2114C59.8078 13.0617 59.6933 12.8912 59.6064 12.7009C59.5855 12.6574 59.5674 12.6122 59.5505 12.5665L59.5488 12.567C59.5341 12.5258 59.52 12.4857 59.5082 12.4462H59.5093C59.5589 12.4592 59.6086 12.4722 59.6583 12.484C59.8773 12.5349 60.0974 12.5733 60.318 12.5992C60.5438 12.6258 60.7707 12.6399 60.9993 12.6393V12.0616C61.0354 10.8001 62.1895 9.86438 63.4622 9.86438C63.5023 9.86438 63.5441 9.86608 63.5858 9.86777V10.8385C63.4803 10.8295 63.3781 10.8232 63.285 10.8232C63.1569 10.8232 63.0209 10.8374 62.886 10.8639Z" fill="#006648"/>
</g>
</g>
<defs>
<linearGradient id="paint0_linear_4295_117" x1="48.2128" y1="1.7243e-06" x2="-0.350138" y2="48.2116" gradientUnits="userSpaceOnUse">
<stop stop-color="#3ABBA0"/>
<stop offset="1" stop-color="#009365"/>
</linearGradient>
<clipPath id="clip0_4295_117">
<rect width="150" height="48.3871" fill="white"/>
</clipPath>
</defs>
</svg>
