<svg width="217" height="70" viewBox="0 0 217 70" fill="none" xmlns="http://www.w3.org/2000/svg">
<g id="logo-colored">
<path id="Fill-36" fill-rule="evenodd" clip-rule="evenodd" d="M38.38 0C36.7912 0.0228741 35.2097 0.595544 33.9404 1.71311C33.8707 1.77846 33.8561 1.89038 33.9088 1.97289C33.9445 2.026 33.9996 2.05786 34.0556 2.06357C34.0686 2.06357 34.0816 2.06112 34.0905 2.06112C36.1894 2.04152 38.0483 2.81515 39.1456 4.00624C38.3962 3.99072 37.6428 4.27338 37.0783 4.85504C35.715 6.25444 35.736 8.50019 37.1253 9.87346C38.8593 11.5882 41.646 11.5612 43.3524 9.81382C45.4821 7.62934 45.4472 4.11898 43.2785 1.97453C41.9688 0.680506 40.2753 0.0236911 38.5771 0H38.38ZM23.3152 4.24642C23.2763 4.32485 23.2982 4.42206 23.3688 4.4768C23.4158 4.51029 23.4693 4.51928 23.522 4.50702C23.531 4.50294 23.5399 4.49885 23.5512 4.49477C25.3241 3.8257 27.1384 3.90413 28.4328 4.57238C27.7905 4.79377 27.239 5.26514 26.9397 5.93502C26.2122 7.5452 26.9178 9.44375 28.5155 10.1757C30.5131 11.0923 32.8699 10.201 33.7782 8.19058C34.9153 5.67524 33.8115 2.70732 31.3152 1.56443C30.4847 1.18455 29.6144 1.00483 28.7596 1.00401C26.5496 1.00401 24.432 2.20327 23.3152 4.24642ZM44.929 2.82496C44.8317 2.8658 44.7757 2.97527 44.8017 3.08066C44.8171 3.14764 44.8633 3.20156 44.9192 3.22852C44.933 3.23506 44.9436 3.23587 44.9557 3.24159C47.1342 4.01768 48.7651 5.52165 49.4545 7.16859C48.684 6.86878 47.8016 6.87613 47.0011 7.26336C45.0677 8.19303 44.2493 10.5246 45.1755 12.4689C46.3288 14.9025 49.2217 15.9318 51.6361 14.7693C54.1754 13.548 55.4836 10.7713 54.9727 8.11378C54.98 8.11705 54.9865 8.12277 54.9938 8.12849C56.9062 9.71252 57.9994 11.8308 58.0935 13.7433C57.4309 13.1575 56.538 12.8414 55.5882 12.9337C53.3044 13.1559 51.6329 15.2015 51.8551 17.5004C52.1325 20.3751 54.671 22.4804 57.525 22.2026C57.958 22.1593 58.3806 22.0735 58.7829 21.9518C57.9426 22.4738 57.2922 23.3104 57.0238 24.3512C56.3425 27.0201 57.9353 29.7413 60.5841 30.4291C63.061 31.0729 65.5768 30.1097 67.0423 28.1899C67.0423 28.1948 67.0383 28.2022 67.0383 28.2095C67.0415 28.2218 67.0456 28.2332 67.0456 28.2455C67.4397 30.3744 66.9969 32.3988 65.9969 33.7247C65.8817 32.9608 65.4616 32.2485 64.7796 31.7754C63.1389 30.6399 60.8923 31.0598 59.7642 32.7182C59.2865 33.4191 59.0302 34.2091 58.9808 35.0015C58.8859 36.5423 59.5744 38.0944 60.9304 39.0339C63.4957 40.8067 67.0042 40.1498 68.7682 37.5634C69.3132 36.7645 69.6725 35.8936 69.8549 35.0015C70.378 32.4543 69.4721 29.7356 67.3691 28.0306C67.3156 27.9873 67.2418 27.9808 67.1802 28.0012C67.606 27.3967 67.9328 26.7072 68.1275 25.9466C69.1291 22.0409 66.9912 18.073 63.3116 16.7038C63.3943 16.1737 63.413 15.623 63.3611 15.0643C62.9467 10.7843 59.3173 7.613 55.1179 7.6996C55.027 7.70287 54.9483 7.76169 54.9151 7.84583C54.8186 7.43573 54.6775 7.02971 54.4893 6.63432C53.1925 3.89841 50.4853 2.30865 47.6646 2.30865C46.7505 2.30865 45.8235 2.47613 44.929 2.82496ZM63.1453 17.475C64.1137 19.3875 64.3278 21.4249 63.8355 23.0318C63.4284 22.2892 62.7334 21.71 61.8534 21.4821C61.2111 21.3154 60.5631 21.3195 59.9588 21.4608C61.5087 20.6268 62.6644 19.1824 63.1453 17.475ZM14.1247 10.0744C14.1158 10.1537 14.1637 10.2313 14.2415 10.2542C14.291 10.2697 14.3413 10.2599 14.381 10.2321C14.3883 10.2272 14.3932 10.2198 14.4021 10.2133C15.7087 9.08839 17.2764 8.58842 18.5854 8.75426C18.1093 9.14394 17.7865 9.71906 17.737 10.3824C17.6113 11.9828 18.7978 13.3814 20.3866 13.5072C22.3728 13.6608 24.1068 12.1674 24.2617 10.1659C24.4547 7.66856 22.5999 5.48326 20.1206 5.28719C19.973 5.27494 19.8246 5.26922 19.6794 5.26922C16.909 5.26922 14.5513 7.31809 14.1247 10.0744ZM10.9139 12.0588C7.97151 12.883 6.20429 15.8542 6.7858 18.823C6.80283 18.9022 6.87825 18.9594 6.95935 18.952C7.01207 18.9512 7.05911 18.9251 7.08668 18.8842C7.09155 18.8752 7.09642 18.8679 7.10128 18.8581C7.97232 17.3043 9.317 16.2643 10.6438 15.9604C10.317 16.5053 10.2059 17.1768 10.3875 17.8386C10.8271 19.4316 12.4654 20.3637 14.0477 19.9217C16.025 19.367 17.179 17.3043 16.63 15.3134C16.0598 13.2433 14.1912 11.888 12.1572 11.888C11.746 11.888 11.3283 11.9428 10.9139 12.0588ZM38.4627 14.0733C35.8009 14.9687 34.367 17.8647 35.2559 20.5434C35.9648 22.6871 38.2648 23.843 40.3946 23.1274C42.0961 22.5572 43.0142 20.7027 42.4464 18.9864C42.2088 18.2748 41.7003 17.734 41.0742 17.4415C42.4618 16.9015 44.3118 17.0167 46.0425 17.8884C46.0547 17.8933 46.0644 17.8974 46.0733 17.9031C46.1228 17.9219 46.1796 17.9178 46.2299 17.8884C46.3077 17.8418 46.3402 17.743 46.3085 17.6613C45.3012 15.2513 42.9647 13.7441 40.4643 13.7433C39.8009 13.7433 39.1269 13.8503 38.4627 14.0733ZM26.183 16.6793C24.9276 18.5215 25.3866 21.0401 27.2154 22.3088C28.6761 23.321 30.6785 22.9485 31.6842 21.4756C32.4895 20.2983 32.1951 18.6865 31.024 17.8745C30.5374 17.5387 29.9599 17.4415 29.4247 17.5575C30.0459 16.5494 31.2714 15.7341 32.7774 15.4547C32.7864 15.4507 32.7953 15.4507 32.8018 15.4507C32.8423 15.4384 32.8788 15.4082 32.895 15.3641C32.9218 15.2987 32.8967 15.2211 32.8383 15.1843C32.0483 14.7211 31.1773 14.4981 30.3127 14.4981C28.7199 14.4981 27.1554 15.2587 26.183 16.6793ZM43.3645 23.4811C42.5924 25.8037 43.8341 28.3215 46.1455 29.1016C47.9922 29.7249 49.9898 28.7234 50.6102 26.864C50.8673 26.0888 50.7748 25.2849 50.4212 24.6199C51.9776 25.0635 53.5055 26.3812 54.4407 28.2757C54.4463 28.288 54.4512 28.2986 54.4577 28.31C54.4877 28.3566 54.5404 28.3942 54.6029 28.3991C54.7002 28.4089 54.7934 28.3468 54.8186 28.2536C55.6904 24.7719 53.7797 21.1422 50.3409 19.9806C49.7602 19.7845 49.1698 19.6906 48.5883 19.6906C46.2858 19.6906 44.1366 21.1569 43.3645 23.4811ZM22.2293 19.7175C19.681 20.0271 17.7492 22.2598 17.8611 24.8862C17.9568 27.092 19.81 28.8034 21.9989 28.7087C23.7524 28.6319 25.1125 27.1418 25.0346 25.3756C24.9762 23.9639 23.7905 22.8701 22.3891 22.9289C21.8084 22.955 21.2934 23.223 20.9414 23.6355C20.8343 22.4681 21.3201 21.0924 22.3436 19.9691C22.3501 19.961 22.3558 19.9544 22.3623 19.9503C22.3842 19.916 22.3947 19.8711 22.3842 19.8286C22.368 19.7624 22.3071 19.7175 22.2414 19.7175C22.2366 19.7175 22.2341 19.7175 22.2293 19.7175ZM4.30407 21.2476C1.51902 23.2524 0.786664 27.0658 2.52955 29.9692C2.57821 30.046 2.67797 30.0779 2.76475 30.0395C2.81909 30.0158 2.85639 29.9692 2.87261 29.9169C2.87424 29.9071 2.87424 29.8957 2.87748 29.8851C3.20513 27.9105 4.2254 26.2938 5.50519 25.4606C5.36975 26.1607 5.506 26.9131 5.95125 27.5405C7.02099 29.0493 9.1037 29.3982 10.6008 28.3215C12.4719 26.9727 12.9066 24.3536 11.5676 22.4689C10.5506 21.0344 8.95041 20.2706 7.32594 20.2706C6.27809 20.2706 5.22052 20.5867 4.30407 21.2476ZM15.4645 29.0436C13.0436 31.0083 12.4832 34.5489 14.2715 37.1729C15.7727 39.3786 18.767 39.9374 20.9535 38.4237C22.7062 37.2162 23.149 34.803 21.9495 33.0409C20.9876 31.6292 19.0728 31.2706 17.6713 32.2403C17.0906 32.6406 16.7322 33.25 16.6324 33.9003C15.7833 32.7705 15.4029 31.0435 15.7395 29.2266C15.7411 29.2176 15.7427 29.2078 15.7427 29.1972C15.7476 29.1474 15.7314 29.0943 15.6908 29.0575C15.6584 29.0265 15.613 29.0093 15.5684 29.0093C15.531 29.0093 15.4937 29.0207 15.4645 29.0436ZM1.21569 32.4069C-0.855656 35.4508 -0.206027 39.5559 2.60092 41.8352C2.67716 41.8932 2.79232 41.8866 2.86369 41.8188C2.9083 41.7755 2.9302 41.7143 2.92614 41.6554C2.92371 41.6448 2.92209 41.6334 2.92127 41.6228C2.52955 39.5159 2.96994 37.5128 3.95695 36.2032C4.07293 36.9573 4.48493 37.6631 5.16132 38.1287C6.78417 39.2537 9.00313 38.837 10.1191 37.1983C11.5132 35.1543 10.9958 32.3587 8.96582 30.9561C8.00152 30.2894 6.90339 29.97 5.81662 29.97C4.0413 29.9692 2.29679 30.8213 1.21569 32.4069ZM48.9792 31.5067C47.8065 32.3171 47.2201 33.6675 47.3207 35.0015C47.371 35.66 47.5883 36.3135 47.9865 36.896C48.9468 38.3093 50.8632 38.6679 52.2655 37.6982C52.8478 37.2971 53.2063 36.6885 53.3044 36.0349C54.1576 37.1664 54.5372 38.8967 54.2006 40.7143C54.1982 40.7241 54.1973 40.7339 54.1933 40.7421C54.1917 40.796 54.2079 40.8475 54.2476 40.8851C54.3117 40.9439 54.4082 40.9488 54.4747 40.8957C56.2557 39.4538 57.0311 37.1599 56.6085 35.0015C56.4552 34.2205 56.147 33.4583 55.6702 32.7599C54.7375 31.3907 53.2314 30.6554 51.6994 30.6554C50.761 30.6554 49.8121 30.9316 48.9792 31.5067ZM1.92209 44.0237C0.931026 47.8993 3.08753 51.8369 6.7712 53.1358C6.67306 53.6938 6.6463 54.2738 6.70307 54.8669C7.10615 59.0619 10.6657 62.1719 14.7833 62.087C14.8693 62.0829 14.9431 62.029 14.9796 61.9505C15.0785 62.4072 15.2277 62.8606 15.4353 63.3017C17.1555 66.9289 21.3534 68.5465 25.0135 67.1201C25.1133 67.0768 25.17 66.9681 25.1433 66.8603C25.1279 66.7933 25.0833 66.741 25.0257 66.7141C25.0127 66.7092 25.0022 66.7059 24.9892 66.7018C22.8067 65.9233 21.1709 64.4152 20.4799 62.7683C21.2512 63.0665 22.1344 63.0583 22.9397 62.6719C24.8781 61.7398 25.6956 59.4058 24.7702 57.4549C23.6137 55.0172 20.7175 53.9838 18.2966 55.1504C15.793 56.3545 14.4865 59.0618 14.9285 61.6858C14.922 61.6793 14.9147 61.6744 14.9033 61.6662C13.0307 60.1132 11.9552 58.0382 11.8644 56.1617C12.5181 56.7344 13.3924 57.0481 14.321 56.9566C16.5586 56.7377 18.1993 54.7313 17.9828 52.4774C17.7111 49.6581 15.2212 47.5937 12.4248 47.8674C9.73224 48.1321 7.5952 50.047 6.90826 52.5231C5.87096 50.5927 5.62928 48.5095 6.12968 46.8814C6.52708 47.6109 7.2132 48.1787 8.07532 48.4017C10.1515 48.9425 12.2707 47.682 12.8076 45.5898C13.4775 42.9732 11.9171 40.3051 9.317 39.6303C8.80849 39.4987 8.29916 39.4358 7.79714 39.4358C5.09562 39.4358 2.62931 41.2658 1.92209 44.0237ZM67.018 40.0551C66.9653 40.0779 66.9296 40.1212 66.9166 40.1743C66.915 40.1841 66.9134 40.194 66.9101 40.2038C66.5954 42.1048 65.6149 43.6586 64.3813 44.4608C64.5103 43.7885 64.3781 43.063 63.9515 42.4609C62.9215 41.0084 60.9191 40.6727 59.4771 41.7102C57.6742 43.0067 57.2581 45.5277 58.546 47.3438C60.1543 49.6116 63.2832 50.1368 65.5338 48.5169C68.2183 46.5865 68.9223 42.9168 67.2434 40.1237C67.2102 40.0706 67.151 40.0404 67.0894 40.0404C67.0658 40.0404 67.0415 40.0445 67.018 40.0551ZM19.3007 43.0451C19.0371 43.8301 19.132 44.652 19.4905 45.3284C17.909 44.8774 16.351 43.5344 15.398 41.6048C15.3924 41.5934 15.3875 41.5852 15.3834 41.5729C15.3494 41.5223 15.2983 41.4863 15.2334 41.4806C15.1361 41.4692 15.0412 41.5337 15.0152 41.6269C14.1272 45.174 16.072 48.8706 19.5716 50.0511C22.5099 51.0428 25.6907 49.449 26.6745 46.4901C27.462 44.1218 26.1968 41.5599 23.844 40.7658C23.4669 40.6367 23.0817 40.5771 22.7029 40.5771C21.2025 40.5771 19.8035 41.5321 19.3007 43.0451ZM48.7302 41.2372C46.9801 41.314 45.6232 42.8008 45.6995 44.5629C45.7587 45.9697 46.9419 47.066 48.3401 47.0031C48.9208 46.9786 49.4326 46.7098 49.7862 46.2989C49.8908 47.4622 49.4074 48.8355 48.3831 49.9571C48.3783 49.9628 48.3742 49.9677 48.3693 49.9751C48.3434 50.0086 48.3353 50.0543 48.3458 50.0968C48.362 50.1654 48.4302 50.212 48.4983 50.2038C51.0392 49.8983 52.967 47.673 52.8543 45.0506C52.7618 42.9086 51.0092 41.2339 48.8997 41.2339C48.8438 41.2339 48.787 41.2355 48.7302 41.2372ZM30.8634 46.477C30.4263 46.477 29.9827 46.5481 29.5471 46.6943C27.7969 47.2808 26.8562 49.1819 27.4385 50.9415C27.6818 51.671 28.2033 52.2266 28.8472 52.5247C27.4247 53.0803 25.5277 52.9626 23.7524 52.0673C23.7394 52.0632 23.7313 52.0583 23.7207 52.0517C23.6705 52.0346 23.6096 52.037 23.5618 52.0673C23.4815 52.1146 23.4482 52.2168 23.4807 52.3001C24.7889 55.4281 28.2779 57.0718 31.526 55.9796C34.2503 55.0621 35.7239 52.0918 34.8147 49.3461C34.2308 47.588 32.6055 46.477 30.8634 46.477ZM38.1788 48.3592C37.3443 49.5789 37.6517 51.2479 38.8625 52.0885C39.3654 52.4373 39.9655 52.5378 40.517 52.4177C39.8747 53.4601 38.6079 54.3048 37.0467 54.5932C37.0385 54.5957 37.0296 54.5973 37.0223 54.5989C36.9802 54.612 36.9437 54.6431 36.925 54.6855C36.8966 54.755 36.9242 54.8367 36.985 54.8734C39.3127 56.2369 42.3248 55.5923 43.8747 53.3253C45.1763 51.4186 44.6987 48.811 42.8049 47.4998C42.2283 47.1003 41.5722 46.9083 40.9217 46.9083C39.8641 46.9083 38.8244 47.4156 38.1788 48.3592ZM56.0473 50.2357C54.2038 50.7504 53.1235 52.6751 53.6369 54.5328C54.2784 56.8529 56.6645 58.2122 58.9694 57.566C61.7139 56.7973 63.3619 54.0287 62.8193 51.2601C62.8023 51.1842 62.7333 51.1319 62.6547 51.136C62.6052 51.1384 62.563 51.1654 62.5355 51.2029C62.5322 51.2111 62.529 51.2185 62.5257 51.225C61.7098 52.6751 60.4568 53.6456 59.2208 53.9299C59.5249 53.4209 59.6288 52.7927 59.4593 52.1792C59.1186 50.9415 58.0035 50.1328 56.7902 50.1328C56.5452 50.1328 56.2946 50.1654 56.0473 50.2357ZM45.8698 59.7832C45.6857 62.1834 47.4642 64.2821 49.847 64.4691C52.6856 64.6922 55.1722 62.658 55.6028 59.8722C55.6134 59.7979 55.5663 59.7228 55.4909 59.7007C55.4431 59.686 55.3936 59.6942 55.3595 59.7219C55.3506 59.7268 55.3441 59.7309 55.3368 59.7383C54.083 60.8199 52.5769 61.3003 51.3182 61.1418C51.7756 60.7684 52.0871 60.2154 52.1382 59.5765C52.2566 58.0399 51.1171 56.6985 49.5915 56.5776C49.4991 56.5702 49.4074 56.5678 49.3158 56.5678C47.5259 56.5678 46.0117 57.9557 45.8698 59.7832ZM26.535 60.0642C24.3817 62.2765 24.4117 65.8293 26.6088 67.9999C29.2235 70.5863 33.3468 70.6533 36.0605 68.2646C36.1326 68.1984 36.1464 68.0865 36.0896 68.0015C36.0588 67.9493 36.0012 67.9174 35.9437 67.9117H35.908C33.7831 67.9321 31.9032 67.1503 30.7921 65.9429C31.5495 65.9592 32.3103 65.6741 32.8845 65.0851C34.264 63.6694 34.2421 61.3942 32.8383 60.0062C31.9705 59.1493 30.8415 58.7212 29.715 58.7212C28.5609 58.7212 27.4077 59.1697 26.535 60.0642ZM36.118 61.7226C34.9729 64.2584 36.0856 67.2475 38.603 68.4019C41.6014 69.7743 45.1042 68.5538 46.6654 65.697C46.7076 65.621 46.684 65.5197 46.6119 65.4666C46.5672 65.4331 46.5105 65.4249 46.4602 65.4364C46.4529 65.4388 46.4415 65.4445 46.4302 65.4478C44.6419 66.1226 42.8163 66.0442 41.5113 65.3686C42.1561 65.1472 42.71 64.6701 43.0142 63.9969C43.7473 62.3721 43.0352 60.458 41.4229 59.7219C40.8852 59.4744 40.3216 59.3568 39.7668 59.3568C38.2445 59.3568 36.7896 60.2358 36.118 61.7226Z" fill="white"/>
<g id="Union">
<path d="M182.9 13.1879L187.364 12.076L187.482 12.1749L187.482 31.5329H184.778V14.6551L182.9 13.4509V13.1879Z" fill="white"/>
<path fill-rule="evenodd" clip-rule="evenodd" d="M190.999 30.705C190.471 30.1601 190.141 29.4837 189.991 28.6594L189.99 28.6575C189.99 28.6562 189.989 28.6553 189.989 28.6536C189.85 28.1471 189.942 27.1815 190.001 26.7036C190.008 26.5991 190.019 26.5018 190.039 26.4201V26.4185H190.396C190.396 26.4185 190.585 29.5384 193.085 29.58H198.099C198.531 28.6855 198.761 27.2118 198.761 26.1359C198.761 24.1997 197.671 21.6999 195.486 21.6999L195.304 19.7474C198.828 19.8471 201.442 23.0732 201.442 26.6326C201.442 26.9969 201.421 27.3858 201.378 27.7893C201.458 28.1259 201.566 28.4331 201.731 28.6855C201.911 28.9673 202.161 29.1822 202.476 29.348C202.772 29.4967 203.153 29.58 203.584 29.58H206.478V19.7474H210.862C214.386 19.8471 217 23.0732 217 26.6326C217 28.1226 216.637 30.0596 216.023 31.5333H204.195C203.352 31.5333 202.69 31.2343 202.178 30.705C201.699 30.2115 201.385 29.6095 201.218 28.8873C201.05 29.8104 200.795 30.7376 200.465 31.5333H193.018C192.173 31.5333 191.513 31.2343 190.999 30.705ZM211.044 21.6999H209.226V29.58H213.658C214.088 28.6855 214.32 27.2118 214.32 26.1359C214.32 24.1997 213.228 21.6999 211.044 21.6999Z" fill="white"/>
<path d="M181.039 34.5521C181.04 34.5475 181.041 34.5445 181.043 34.5412C181.044 34.5387 181.045 34.536 181.046 34.5324C181.066 34.4565 181.085 34.3658 181.099 34.2678C181.117 34.1583 181.131 34.0464 181.137 33.9271C181.172 33.5268 181.175 33.1061 181.175 32.9492C181.189 32.2973 181.189 31.5278 181.189 31.5278V19.8244L181.058 19.7263L176.626 20.83V21.0939L178.487 22.2801V33.0456C178.487 33.2335 178.477 33.4018 178.461 33.5554C178.461 33.5554 178.391 34.0627 178.229 34.4058C177.985 34.8682 177.371 35.6182 175.837 36.1941V36.623H177.854C177.854 36.623 180.473 36.7292 181.039 34.5521Z" fill="white"/>
<path d="M150.001 36.3442L150.007 36.3401C148.696 35.9643 147.621 35.1907 146.891 34.1327C146.762 33.9179 146.075 32.7595 146.092 31.1011C146.092 31.0864 146.095 31.0758 146.097 31.0635C146.14 28.1511 148.334 25.9667 151.236 25.9667C152.853 25.9667 154.049 26.7109 154.169 27.7598C154.179 27.835 154.188 27.9126 154.188 27.9918C154.188 28.6756 153.75 29.2565 153.137 29.4762C152.969 29.5391 152.791 29.5751 152.6 29.5751C151.54 29.5751 150.968 28.6944 150.968 27.866C150.968 27.5033 151.056 27.1316 151.214 26.795C149.725 26.8686 148.196 27.9371 148.196 30.7637V30.8217C148.196 30.8217 148.191 31.0112 148.208 31.2955L148.21 31.2931V31.3339C148.215 31.4115 148.222 31.4949 148.23 31.5823C148.325 32.418 148.878 34.6784 151.925 34.6784H152.871L154.715 34.6752C155.178 34.6752 155.491 34.56 155.656 34.3133C155.82 34.0821 155.902 33.654 155.902 33.0429V22.2774L154.04 21.0904V20.8257L158.473 19.7212L158.605 19.8201V27.4012C158.619 27.4968 158.636 27.5915 158.657 27.6847C158.739 28.0637 158.87 28.4101 159.052 28.6895C159.217 28.9705 159.464 29.1838 159.777 29.3504C160.073 29.4991 160.453 29.58 160.897 29.58H162.101C162.563 29.58 162.876 29.4648 163.023 29.2189C163.188 28.9869 163.27 28.558 163.27 27.9494V22.2774L161.425 21.0904V20.8257L165.873 19.7212L165.989 19.8201V26.4315C165.989 26.8939 166.039 27.3064 166.122 27.6847C166.186 28.0637 166.319 28.4101 166.501 28.6895C166.682 28.9705 166.929 29.1838 167.225 29.3504C167.538 29.4991 167.917 29.58 168.346 29.58H169.351C169.845 29.58 170.174 29.4648 170.323 29.2189C170.488 28.9869 170.554 28.5425 170.554 27.8995V22.2774L168.708 21.0904V20.8257L173.157 19.7212L173.273 19.8201V26.4315C173.273 26.4315 173.295 27.5662 173.244 28.3946L173.245 28.3938C173.245 28.3938 173.244 28.4108 173.241 28.4414L173.239 28.4745L173.234 28.5237C173.233 28.5413 173.231 28.5599 173.23 28.5777L173.228 28.598C173.228 28.5866 173.228 28.5784 173.228 28.5759C173.197 28.879 173.107 29.4999 172.885 29.9419L172.884 29.937C172.739 30.2425 172.549 30.5023 172.317 30.7343C172.054 30.9818 171.707 31.1812 171.279 31.311C170.867 31.4434 170.356 31.5267 169.763 31.5267H169.121C168.28 31.5267 167.571 31.2628 166.995 30.7343C166.417 30.2237 166.071 29.5318 165.941 28.6576C165.825 29.5146 165.527 30.2066 165.017 30.7343C164.522 31.2628 163.665 31.5267 162.463 31.5267H161.721C160.865 31.5267 160.139 31.2628 159.562 30.7514C159.094 30.3462 158.781 29.8267 158.605 29.1862V31.5267C158.605 31.5267 158.605 32.4368 158.587 33.1157C158.592 33.3738 158.58 34.5673 158.033 35.3459C157.92 35.5183 157.791 35.68 157.632 35.8295C157.369 36.0762 157.023 36.2747 156.61 36.4071C156.18 36.5394 155.672 36.6211 155.078 36.6211H152.46C152.016 36.6211 151.62 36.6023 151.248 36.5656C151.113 36.5533 150.994 36.5378 150.883 36.5231C150.88 36.5223 150.878 36.5223 150.878 36.5223H150.873C150.277 36.4389 150.001 36.3442 150.001 36.3442Z" fill="white"/>
<path fill-rule="evenodd" clip-rule="evenodd" d="M83.8404 31.2557C83.8404 31.2557 84.1163 31.3512 84.7132 31.4329H84.7164C84.7182 31.4329 84.7197 31.4334 84.7211 31.4338L84.7229 31.4343L84.7246 31.4346C84.834 31.4493 84.9532 31.464 85.0879 31.4779C85.4594 31.5138 85.8562 31.5318 86.2996 31.5318H87.4475V31.5302H94.6488C96.8403 31.5302 98.1091 30.7565 98.372 28.6611C98.5369 29.4862 98.8676 30.1626 99.3942 30.7075C99.4636 30.7802 99.5501 30.848 99.6489 30.9117C99.8236 31.04 100.598 31.5302 102.161 31.5302H104.682C105.274 31.5302 105.785 31.4485 106.213 31.3169C106.625 31.1838 106.971 30.9861 107.235 30.7386C107.516 30.4747 107.714 30.1781 107.861 29.8334C108.01 29.4862 108.109 29.09 108.158 28.6611C108.29 29.5532 108.636 30.2443 109.229 30.7565C109.805 31.2671 110.531 31.5302 111.387 31.5302H112.129C113.332 31.5302 114.19 31.2671 114.683 30.7386C115.195 30.2108 115.49 29.5197 115.605 28.6611C115.738 29.536 116.084 30.228 116.662 30.7386C117.237 31.2671 117.946 31.5302 118.786 31.5302H119.429C120.022 31.5302 120.533 31.4485 120.944 31.3169C121.373 31.1838 121.72 30.9861 121.984 30.7386C122.247 30.4747 122.46 30.1781 122.609 29.817C122.758 29.469 122.84 29.0736 122.89 28.6611C123.038 29.4862 123.367 30.1626 123.894 30.7075C124.405 31.2344 125.065 31.5293 125.905 31.5293L125.917 31.5298C125.923 31.53 125.931 31.5302 125.939 31.5302H139.096L139.103 31.5334C139.107 31.5239 139.11 31.5149 139.114 31.5056L139.117 31.4975C139.723 30.0294 140.08 28.1113 140.08 26.6326C140.08 23.0733 137.465 19.8472 133.941 19.7467H129.559V29.5801L129.587 29.5859H125.295C124.867 29.5859 124.488 29.5033 124.192 29.3547C123.879 29.1888 123.631 28.9756 123.451 28.6946C123.268 28.4152 123.154 28.0688 123.07 27.6898C122.989 27.3091 122.938 26.8981 122.938 26.4349V19.8243L122.825 19.7255L118.376 20.83V21.0938L120.221 22.2817V27.9046C120.221 28.5467 120.154 28.9911 119.99 29.2207C119.841 29.469 119.512 29.5859 119.017 29.5859H118.012C117.584 29.5859 117.205 29.5033 116.89 29.3547C116.595 29.1888 116.348 28.9756 116.166 28.6946C115.985 28.4152 115.853 28.0688 115.787 27.6898C115.706 27.3091 115.654 26.8981 115.654 26.4349V19.8243L115.542 19.7255L111.092 20.83V21.0938L112.937 22.2817V27.9536C112.937 28.5622 112.855 28.9911 112.689 29.2207C112.54 29.469 112.228 29.5859 111.767 29.5859H110.563C110.118 29.5859 109.741 29.5033 109.443 29.3547C109.13 29.1888 108.883 28.9756 108.719 28.6946C108.537 28.4152 108.406 28.0688 108.323 27.6898C108.239 27.3091 108.209 26.8981 108.209 26.4349V19.8243L108.077 19.7255L103.641 20.83V21.0938L105.506 22.2817V27.9536C105.506 28.5622 105.422 28.9911 105.256 29.2207C105.092 29.469 104.78 29.5859 104.319 29.5859H100.828C98.9174 29.536 98.4226 28.0517 98.4226 26.4349V12.1754L98.3058 12.0765L93.8405 13.1867V13.449L95.7192 14.6539V27.9046C95.7037 28.9756 95.587 29.5859 94.5002 29.5859H85.7615C82.712 29.5859 82.1601 27.3238 82.0678 26.4889C82.0588 26.4006 82.0506 26.3173 82.0466 26.2413V26.2005L82.0449 26.2029C82.0278 25.917 82.0327 25.7283 82.0327 25.7283C82.0332 25.7158 82.033 25.703 82.0329 25.6901L82.0327 25.6703C82.0327 22.8437 83.5611 21.7752 85.0496 21.7024C84.8936 22.0341 84.8062 22.4026 84.8062 22.7628C84.8062 23.5912 85.3786 24.471 86.44 24.471C86.6302 24.471 86.8082 24.4359 86.9732 24.373C87.5872 24.1549 88.028 23.574 88.028 22.8886C88.028 22.7342 88.0044 22.5856 87.9627 22.4434C87.9603 22.4369 87.9595 22.4287 87.957 22.4213C87.9538 22.4124 87.9497 22.4026 87.9464 22.3936C87.6672 21.4892 86.5445 20.8724 85.0708 20.8724C82.1388 20.8724 79.9294 23.1019 79.9294 26.0583C79.9294 26.0769 79.9307 26.0946 79.9319 26.1125C79.933 26.1269 79.934 26.1414 79.9343 26.1564C79.9335 26.1678 79.9319 26.1792 79.9319 26.1923C79.9343 26.3059 79.9409 26.4162 79.9482 26.524C79.9504 26.5455 79.9525 26.5668 79.9545 26.5881L79.9547 26.5894L79.9548 26.5907C79.9572 26.6153 79.9595 26.6401 79.9621 26.6645C79.9743 26.7862 79.989 26.9063 80.007 27.0215C80.0117 27.0486 80.0168 27.0757 80.0218 27.1027L80.0277 27.1341C80.0304 27.1486 80.0331 27.1631 80.0356 27.1775C80.0593 27.3017 80.0862 27.4202 80.114 27.5337C80.1189 27.5501 80.1238 27.5672 80.1278 27.5844C80.3369 28.3792 80.6471 28.9053 80.7296 29.0426C81.4611 30.1013 82.5283 30.8815 83.8404 31.2557ZM132.328 21.7368H134.141C135.905 21.7368 136.954 23.3739 137.288 25.0208C137.363 25.3999 137.4 25.7781 137.4 26.1359C137.4 27.2118 137.168 28.6848 136.738 29.5801H132.328V21.7368Z" fill="white"/>
<path fill-rule="evenodd" clip-rule="evenodd" d="M174.421 51.794C174.421 48.6521 176.521 45.4718 180.537 45.4718C184.07 45.4718 186.267 47.8646 186.267 51.7164C186.267 54.8975 184.174 58.1187 180.177 58.1187C176.68 58.1187 174.421 55.6352 174.421 51.794ZM177.248 51.8708C177.248 55.1157 178.499 57.2111 180.434 57.2111C182.343 57.2111 183.437 55.2072 183.437 51.7164C183.437 48.3743 182.249 46.3786 180.255 46.3786C178.401 46.3786 177.248 48.483 177.248 51.8708Z" fill="white"/>
<path fill-rule="evenodd" clip-rule="evenodd" d="M193.8 45.4718C189.786 45.4718 187.686 48.6521 187.686 51.794C187.686 55.6352 189.943 58.1187 193.44 58.1187C197.438 58.1187 199.529 54.8975 199.529 51.7164C199.529 47.8646 197.335 45.4718 193.8 45.4718ZM193.696 57.2111C191.761 57.2111 190.513 55.1157 190.513 51.8708C190.513 48.483 191.664 46.3786 193.518 46.3786C195.512 46.3786 196.702 48.3743 196.702 51.7164C196.702 55.2072 195.607 57.2111 193.696 57.2111Z" fill="white"/>
<path d="M172.444 56.6108L172.442 56.6116V56.8861L174.137 57.3485V57.703H168.339V57.3485L169.95 56.8877V56.6124L169.947 56.6116V50.3089C169.947 48.5166 169.118 47.6082 167.481 47.6082C166.42 47.6082 165.632 47.8124 164.707 48.3311L164.709 56.8877L166.288 57.3485V57.703H160.493V57.3485L162.005 56.9343V40.8154L160.127 39.612V39.3481L164.591 38.2363L164.707 38.3351V47.4194C166.145 46.1091 167.531 45.4719 168.941 45.4719C171.361 45.4719 172.444 47.3467 172.444 49.2053V56.6108Z" fill="white"/>
<path d="M204.21 38.3349L204.095 38.2361L199.63 39.3479V39.611L201.509 40.8143V56.9316L199.895 57.3466V57.7004H205.904V57.3466L204.211 56.8851L204.21 38.3349Z" fill="white"/>
<path d="M152.656 52.542C152.775 53.5926 153.455 56.5662 157.289 56.4167C158.327 56.3073 159.315 55.9707 160.335 55.4715L160.47 55.8171C159.243 57.1503 157.58 58.071 155.907 58.1053C155.871 58.1127 155.828 58.1184 155.774 58.1184C153.375 58.1184 151.486 56.8791 150.57 54.8956C150.566 54.8841 150.56 54.8721 150.555 54.8609L150.549 54.8474C150.493 54.7257 150.441 54.6007 150.393 54.4733C150.392 54.471 150.391 54.4685 150.39 54.4662C150.389 54.4645 150.388 54.4627 150.387 54.461H150.388C150.114 53.7217 149.968 52.8941 149.968 51.9988C149.968 48.2776 152.749 45.4715 156.439 45.4715C158.588 45.4715 160.147 46.5147 160.147 47.9509C160.147 48.9238 159.479 49.6591 158.593 49.6591C157.532 49.6591 156.96 48.7792 156.96 47.9509C156.96 47.4648 157.117 46.9624 157.39 46.5555C157.159 46.5204 156.93 46.5073 156.619 46.5073C154.683 46.5073 152.614 47.8226 152.614 51.5119L152.614 51.5413C152.614 51.5555 152.613 51.5699 152.613 51.5838L152.614 51.583C152.614 51.583 152.607 51.8215 152.628 52.1809L152.63 52.1777L152.63 52.1923C152.631 52.2011 152.631 52.2135 152.632 52.2291C152.636 52.3142 152.644 52.4049 152.653 52.5006L152.653 52.5016L152.656 52.542Z" fill="white"/>
<path d="M212.528 50.1589L212.388 50.1026C211.078 49.5798 209.725 49.0396 209.725 47.6812C209.725 46.6069 210.543 46.2899 211.229 46.2115C212.899 46.1323 213.997 47.5104 214.226 47.8241C214.469 48.1836 214.713 48.5945 214.968 49.0692L215.418 48.9197L215.267 45.6135H215.265L215.263 45.5988L215.133 45.5727C214.512 45.4469 213.056 45.152 212.05 45.152C209.499 45.152 207.718 46.7049 207.718 48.9311C207.718 51.0829 209.413 51.9701 211.158 52.6988C212.797 53.2935 213.956 53.8106 213.956 55.0328C213.956 56.1119 213.312 56.8578 212.277 57.0383C212.249 57.0424 212.22 57.0473 212.193 57.0514L212.189 57.0515L212.184 57.0519L212.178 57.0527C212.176 57.053 212.174 57.0534 212.172 57.0539C210.329 57.2654 209.137 55.6912 208.959 55.4396C208.673 54.9723 208.407 54.4152 208.173 53.7559H207.573V57.3618C207.575 57.3627 207.579 57.3643 207.579 57.3643L207.682 57.41C209.011 58.0023 210.036 58.1183 211.357 58.1183C214.198 58.1183 216.104 56.433 216.104 53.9234C216.104 51.6494 214.039 50.7888 212.528 50.1589Z" fill="white"/>
<path d="M144.138 47.6657C144.678 47.8895 145.238 48.1215 145.779 48.3846C147.949 49.4294 148.876 50.6948 148.876 52.6146C148.876 56.3921 145.628 58.0922 143.321 58.0922L143.314 58.0914C141.967 58.0677 140.47 57.7499 139.477 57.2524L138.394 58.1755H137.987L137.661 52.2339L138.093 52.18C138.416 52.9177 138.74 53.5549 139.065 54.108C139.278 54.4609 140.846 56.9182 143.314 57.0065V57.0048L143.321 57.0049C143.365 57.0057 143.407 57.0065 143.451 57.0065C145.249 57.0065 146.457 55.808 146.457 54.0247C146.457 52.6522 146.024 51.8565 143.462 50.7733L143.174 50.6605L143.12 50.639C142.389 50.3508 141.635 50.0534 140.945 49.7186C139.069 48.7947 138.234 47.5055 138.234 45.5408C138.234 42.4732 140.674 40.7691 143.165 40.6874H143.169C144.338 40.7209 145.56 40.997 146.416 41.4275L147.377 40.6082H147.739L148.027 45.8733L147.642 45.9215C147.137 44.7639 146.626 43.8808 146.11 43.2142C145.114 41.9806 143.705 41.7772 143.195 41.7429C143.182 41.7429 143.164 41.7426 143.143 41.7423L143.039 41.7402C143.018 41.7399 143.001 41.7396 142.99 41.7396C141.591 41.7396 140.651 42.7828 140.651 44.335C140.651 45.6372 141.311 46.4541 142.931 47.151C143.32 47.3283 143.716 47.4916 144.138 47.6657Z" fill="white"/>
<path d="M96.5892 41.0266L95.6029 43.7756L91.701 53.6605L87.7011 43.778L86.6584 41.0266H80.9888L80.9905 41.0274H80.988V41.4628L83.012 41.9767V53.5665H83.0137V56.5426L80.988 57.2354V57.7019H86.2257V57.2354L84.2 56.541V42.9317L84.2025 42.935L90.3464 57.6978H91.1915L97.0758 42.9505V56.7853L94.5382 57.2476V57.7027H102.518V57.2476L99.9825 56.7853L99.9833 41.9228L102.518 41.462V41.0266H96.5892Z" fill="white"/>
<path d="M104.676 46.8394C104.676 45.8877 105.481 45.1426 106.511 45.1426C107.26 45.1426 108.066 45.7365 108.066 46.7013C108.066 47.5877 107.33 48.5378 106.233 48.5378C105.419 48.5378 104.676 47.729 104.676 46.8394Z" fill="white"/>
<path d="M107.645 49.4837L107.529 49.3849L103.066 50.4959V50.7606L104.943 51.9639V56.8998L103.289 57.4104V57.7021H109.456V57.4104L107.646 56.8508L107.645 49.4837Z" fill="white"/>
<path d="M115.02 50.1026L115.161 50.1589L115.164 50.1602C116.674 50.7899 118.738 51.6505 118.738 53.9234C118.738 56.433 116.828 58.1183 113.989 58.1183C112.669 58.1183 111.645 58.0023 110.313 57.41L110.211 57.3643C110.21 57.3635 110.207 57.3627 110.205 57.3618V53.7559H110.806C111.038 54.4152 111.304 54.9723 111.591 55.4396C111.769 55.6912 112.964 57.2654 114.805 57.0539C114.811 57.0522 114.82 57.0514 114.826 57.0514L114.859 57.0461C114.876 57.0435 114.893 57.0408 114.91 57.0383C115.944 56.8578 116.588 56.1119 116.588 55.0328C116.588 53.8106 115.429 53.2935 113.791 52.6988C112.046 51.9701 110.351 51.0829 110.351 48.9311C110.351 46.7049 112.132 45.152 114.682 45.152C115.687 45.152 117.142 45.4464 117.764 45.5724L117.765 45.5727L117.897 45.5988L117.897 45.6135H117.899L118.048 48.9197L117.599 49.0692C117.345 48.5945 117.101 48.1836 116.858 47.8241C116.629 47.5104 115.53 46.1323 113.862 46.2115C113.175 46.2899 112.357 46.6069 112.357 47.6812C112.357 49.0397 113.71 49.5797 115.02 50.1026Z" fill="white"/>
<path d="M130.327 56.7559L126.576 51.9189C128.959 51.4614 130.759 49.3668 130.759 46.8498C130.759 46.6227 130.745 46.3988 130.716 46.1823C130.516 44.7241 129.267 43.5992 127.755 43.5992C126.162 43.5992 124.861 44.8458 124.77 46.4152H124.776C124.776 46.4191 124.775 46.4233 124.775 46.4278C124.774 46.4327 124.773 46.4378 124.773 46.443C124.773 47.1757 125.366 47.7688 126.099 47.7688C126.83 47.7688 127.425 47.1757 127.425 46.443C127.425 45.7102 126.83 45.1154 126.099 45.1154C125.978 45.1154 125.863 45.1367 125.752 45.1669C126.063 44.8499 126.493 44.6522 126.971 44.6522C127.821 44.6522 128.52 45.2772 128.649 46.0917L128.654 46.0868C128.654 46.0868 128.756 46.5108 128.678 47.1627C128.678 47.1644 128.677 47.1657 128.677 47.1669C128.677 47.1674 128.677 47.1679 128.676 47.1684C128.676 47.1689 128.676 47.1694 128.676 47.17C128.668 47.2452 128.657 47.3203 128.643 47.4004C128.591 47.7125 128.501 48.027 128.369 48.3374C128.36 48.3595 128.352 48.3815 128.343 48.4036L128.341 48.3987C127.721 49.7989 126.269 51.0676 123.906 51.1158H123.024V50.8274H123.021V38.3382L122.906 38.2385L118.441 39.3503V39.6134L120.32 40.8167V56.8932L118.652 57.407V57.7027H124.537V57.407L123.023 56.8556L123.022 52.0038H123.866L127.302 56.8196L126.13 57.407V57.7027H131.608V57.407L130.481 56.9561L130.327 56.7559Z" fill="white"/>
<path d="M90.9748 15.7165C90.1224 15.8896 89.2757 16.4321 89.2757 17.3462V18.2849H91.9872V19.7194H88.2355C88.2241 19.7194 88.211 19.7186 88.211 19.7186C87.5937 19.7186 87.1079 19.5005 86.7324 19.1124C86.5217 18.896 86.356 18.6492 86.2302 18.3739C86.2 18.311 86.1739 18.2457 86.1494 18.1795L86.1469 18.1803C86.1257 18.1207 86.1053 18.0627 86.0882 18.0055H86.0898C86.1616 18.0243 86.2335 18.0431 86.3053 18.0602C86.6221 18.1338 86.9406 18.1893 87.2598 18.2269C87.5864 18.2653 87.9146 18.2857 88.2453 18.2849V17.4492C88.2975 15.6241 89.9672 14.2705 91.8084 14.2705C91.8664 14.2705 91.9268 14.2729 91.9872 14.2754V15.6797C91.8345 15.6666 91.6867 15.6576 91.552 15.6576C91.3667 15.6576 91.1699 15.6781 90.9748 15.7165Z" fill="white"/>
</g>
</g>
</svg>
