<svg width="72" height="70" viewBox="0 0 72 70" fill="none" xmlns="http://www.w3.org/2000/svg">
<g id="White" clip-path="url(#clip0_4204_712)">
<g id="Layer_1-2">
<path id="Vector" d="M63.1105 52.6037L62.918 51.6831L63.1105 51.3581L63.3994 52.1163L63.1105 52.6037ZM60.6976 51.2679L61.4197 50.0584L60.2944 49.3905L59.4881 50.7384L59.1511 50.5398L60.1981 48.7827L63.3151 50.6361L62.3102 52.3269L61.9733 52.1284L62.7375 50.8467L61.7506 50.257L61.0346 51.4665L60.7036 51.2679H60.6976Z" fill="white"/>
<path id="Vector_2" d="M56.9607 53.6628C56.9968 53.4763 57.1412 53.1514 57.418 52.8023C58.0498 51.996 59.0307 51.7914 59.9694 52.5316C60.866 53.2356 60.9983 54.3127 60.3003 55.1973C60.0235 55.5463 59.7708 55.7208 59.6444 55.7749L59.4158 55.444C59.5903 55.3597 59.7949 55.2033 59.9814 54.9626C60.5049 54.2947 60.4267 53.5124 59.6745 52.9227C58.9705 52.3751 58.2123 52.4293 57.6707 53.1152C57.4902 53.3439 57.3578 53.6087 57.3157 53.8133L56.9607 53.6508V53.6628Z" fill="white"/>
<path id="Vector_3" d="M55.0352 55.3959C55.7272 54.728 56.7261 54.8002 57.4903 55.5945C58.2906 56.4249 58.2966 57.4598 57.5986 58.1338C56.8825 58.8258 55.8897 58.7235 55.1435 57.9472C54.283 57.0507 54.3673 56.0458 55.0292 55.4079L55.0352 55.3959ZM55.2819 55.6847C54.7464 56.2022 54.9209 56.9845 55.4865 57.5742C55.9859 58.0917 56.7802 58.3745 57.3398 57.8329C57.9055 57.2914 57.6768 56.4971 57.1352 55.9314C56.6057 55.3838 55.8114 55.1612 55.2819 55.6727V55.6847Z" fill="white"/>
<path id="Vector_4" d="M55.005 60.312L54.6259 60.5949L52.7124 57.9833L51.4608 58.898L51.2261 58.579L52.8568 57.3816L54.999 60.306L55.005 60.312Z" fill="white"/>
<path id="Vector_5" d="M49.433 61.6178L50.6545 60.9198L50.0047 59.7825L48.6387 60.5587L48.4462 60.2158L50.2213 59.2048L52.0145 62.3579L50.3055 63.3327L50.113 62.9898L51.4067 62.2496L50.8411 61.2507L49.6196 61.9488L49.427 61.6118L49.433 61.6178Z" fill="white"/>
<path id="Vector_6" d="M46.7553 64.9034C46.4905 65.0358 46.1836 65.1742 45.8286 65.2885C45.1908 65.4991 44.6853 65.5051 44.2942 65.3246C43.891 65.1441 43.5781 64.8011 43.3916 64.2475C43.205 63.6879 43.2351 63.1644 43.4457 62.7432C43.6684 62.3159 44.1438 61.9609 44.8117 61.7443C45.1366 61.636 45.3954 61.5638 45.6361 61.5156L46.7553 64.9034ZM45.2991 62.003C45.1787 62.0211 45.0163 62.0752 44.8418 62.1294C43.891 62.4363 43.548 63.1463 43.8609 64.079C44.1257 64.9034 44.7575 65.2584 45.6962 64.9455C45.9249 64.8673 46.0934 64.7951 46.2017 64.7289L45.2991 62.003Z" fill="white"/>
<path id="Vector_7" d="M41.7007 66.3896L41.3397 64.2655C41.2013 63.4712 40.7921 63.1883 40.3107 63.2726C39.7872 63.3628 39.4984 63.772 39.6368 64.5603L39.9978 66.6844L39.5284 66.7627L39.1734 64.6746C38.9869 63.5735 39.4863 63.0319 40.2626 62.8995C40.9967 62.7731 41.6165 63.0921 41.809 64.2053L42.1701 66.3114L41.7007 66.3896Z" fill="white"/>
<path id="Vector_8" d="M32.47 64.825C32.47 65.3304 32.464 65.9442 32.4399 66.3895H32.452C32.6024 65.9803 32.7769 65.529 32.9875 65.0416L33.7276 63.3206L34.0827 63.3447L34.5701 65.1018C34.7145 65.6253 34.8228 66.1007 34.901 66.5339H34.9131C34.9492 66.0826 35.0154 65.4809 35.0755 64.9393L35.2621 63.3928L35.7074 63.4169L35.244 67.0273L34.6483 66.9912L34.1308 65.2041C34.0044 64.7528 33.9082 64.3436 33.836 63.9645H33.8239C33.7036 64.3255 33.5531 64.7167 33.3666 65.1619L32.6204 66.8769L32.0247 66.8408L32.0127 63.2063L32.476 63.2304V64.825H32.47Z" fill="white"/>
<path id="Vector_9" d="M29.2627 62.6046C30.2014 62.8152 30.6889 63.6877 30.4482 64.7588C30.1954 65.8841 29.3349 66.4617 28.3902 66.2451C27.4214 66.0225 26.9641 65.1439 27.1988 64.0909C27.4756 62.8754 28.3601 62.394 29.2567 62.5986L29.2627 62.6046ZM29.1544 62.9717C28.4323 62.8092 27.8667 63.3808 27.6862 64.1872C27.5237 64.8912 27.7283 65.7096 28.4865 65.878C29.2507 66.0526 29.7863 65.4267 29.9608 64.6625C30.1292 63.9164 29.8765 63.1341 29.1544 62.9717Z" fill="white"/>
<path id="Vector_10" d="M26.3805 61.8886L25.0506 65.2644L24.5693 65.0778L24.1661 62.9477C24.0758 62.4543 24.0157 62.027 23.9976 61.6118H23.9796C23.8412 62.0752 23.6907 62.4904 23.4861 63.0139L22.9265 64.434L22.5173 64.2715L23.8472 60.8958L24.2864 61.0703L24.6836 63.2064C24.7738 63.6758 24.8461 64.1511 24.8641 64.5784H24.8822C25.0266 64.1451 25.177 63.7359 25.3996 63.1763L25.9653 61.7322L26.3745 61.8946L26.3805 61.8886Z" fill="white"/>
<path id="Vector_11" d="M20.7061 63.3388C20.4353 63.2305 20.1224 63.0861 19.8035 62.8996C19.2198 62.5626 18.8828 62.1895 18.7565 61.7743C18.6181 61.3531 18.6722 60.8898 18.9671 60.3843C19.2619 59.8728 19.6711 59.5479 20.1284 59.4275C20.5978 59.3072 21.1755 59.4275 21.7832 59.7826C22.0781 59.9511 22.3067 60.1015 22.4993 60.2519L20.7061 63.3388ZM21.9096 60.3241C21.8193 60.2459 21.6689 60.1617 21.5124 60.0654C20.6459 59.5599 19.8938 59.7705 19.4003 60.619C18.9611 61.3651 19.1115 62.0692 19.966 62.5686C20.1766 62.689 20.3451 62.7612 20.4654 62.8033L21.9036 60.3241H21.9096Z" fill="white"/>
<path id="Vector_12" d="M16.3676 58.182L17.4748 59.0424L18.2751 58.0135L17.0355 57.0507L17.2762 56.7378L18.8889 57.9954L16.6625 60.8597L15.11 59.6562L15.3507 59.3433L16.5301 60.258L17.2341 59.3553L16.1269 58.4949L16.3676 58.188V58.182Z" fill="white"/>
<path id="Vector_13" d="M13.8644 55.2213C14.075 55.444 14.0629 55.799 13.8283 56.0156C13.5996 56.2322 13.2446 56.2142 13.0279 55.9855C12.8173 55.7569 12.8234 55.4018 13.058 55.1852C13.2867 54.9746 13.6417 54.9866 13.8583 55.2153L13.8644 55.2213Z" fill="white"/>
<path id="Vector_14" d="M10.994 49.4626C11.1565 49.5529 11.4213 49.7996 11.662 50.1727C12.2216 51.0272 12.0952 52.02 11.0963 52.6759C10.1396 53.3017 9.0805 53.0731 8.46673 52.1283C8.22002 51.7553 8.14781 51.4604 8.12976 51.322L8.51487 51.2137C8.53894 51.4063 8.62318 51.653 8.78565 51.9057C9.24899 52.6157 10.0132 52.7963 10.8135 52.2728C11.5597 51.7854 11.7582 51.0452 11.2768 50.3111C11.1204 50.0704 10.9098 49.8538 10.7293 49.7515L10.994 49.4687V49.4626Z" fill="white"/>
<path id="Vector_15" d="M9.98313 47.0978C10.3923 47.9703 10.0012 48.891 9.00832 49.3543C7.96731 49.8417 6.98046 49.5228 6.57128 48.6443C6.15007 47.7417 6.56527 46.8391 7.54008 46.3818C8.66533 45.8522 9.592 46.2554 9.98313 47.0918V47.0978ZM9.6281 47.2422C9.3152 46.5683 8.51489 46.478 7.76874 46.827C7.11285 47.1339 6.58934 47.7958 6.92631 48.4999C7.25726 49.2039 8.08164 49.252 8.79169 48.9151C9.48369 48.5901 9.94101 47.9102 9.6281 47.2422Z" fill="white"/>
<path id="Vector_16" d="M5.34376 45.4853L5.19934 45.034L8.28625 44.0652L7.82291 42.5849L8.19599 42.4646L8.80374 44.3962L5.34376 45.4853Z" fill="white"/>
<path id="Vector_17" d="M5.89729 39.7748L6.16205 41.1527L7.44375 40.906L7.1489 39.3596L7.53401 39.2874L7.9131 41.2972L4.35082 41.9711L3.98376 40.0395L4.36888 39.9673L4.64567 41.4295L5.77092 41.2129L5.50616 39.8349L5.88525 39.7627L5.89729 39.7748Z" fill="white"/>
<path id="Vector_18" d="M7.05871 35.2619C7.14897 35.4665 7.29339 35.8817 7.31746 36.3691C7.34755 36.9167 7.23322 37.374 6.9143 37.747C6.63148 38.078 6.15611 38.2946 5.59048 38.3247C4.50735 38.3849 3.67696 37.6809 3.61678 36.4653C3.59271 36.0441 3.66492 35.7072 3.73713 35.5447L4.12224 35.641C4.04401 35.8395 3.98986 36.0863 4.00791 36.4533C4.05605 37.3319 4.63372 37.8794 5.54234 37.8313C6.463 37.7832 6.97447 37.2055 6.92633 36.357C6.90828 36.0502 6.85412 35.8456 6.79395 35.7372L5.71082 35.7974L5.74693 36.5255L5.37385 36.5436L5.30766 35.3521L7.04668 35.2559L7.05871 35.2619Z" fill="white"/>
<path id="Vector_19" d="M3.68899 33.2097L7.31144 33.4083L7.28737 33.8837L3.66492 33.6851L3.68899 33.2097Z" fill="white"/>
<path id="Vector_20" d="M7.70257 30.526C7.55214 31.4767 6.70971 32.0183 5.62658 31.8438C4.4893 31.6633 3.85748 30.8389 4.00791 29.8882C4.16436 28.9073 5.01281 28.3898 6.07788 28.5583C7.30543 28.7569 7.84699 29.6114 7.70257 30.52V30.526ZM7.3295 30.4418C7.44984 29.7076 6.83607 29.1841 6.02373 29.0578C5.31368 28.9434 4.50735 29.1962 4.38701 29.9664C4.26666 30.7366 4.92255 31.236 5.69879 31.3564C6.45096 31.4767 7.21517 31.1759 7.3295 30.4478V30.4418Z" fill="white"/>
<path id="Vector_21" d="M5.45813 24.5569C5.52432 24.268 5.6206 23.9431 5.759 23.6001C6.01173 22.9743 6.33065 22.5892 6.72178 22.4027C7.11892 22.2101 7.58226 22.1921 8.12984 22.4087C8.67742 22.6313 9.05651 22.9863 9.24305 23.4196C9.42959 23.8649 9.39349 24.4546 9.12872 25.1045C9.00236 25.4174 8.88803 25.6701 8.76768 25.8807L5.45813 24.5509V24.5569ZM8.61725 25.3151C8.68344 25.2128 8.74361 25.0563 8.81582 24.8818C9.19491 23.9551 8.86998 23.2391 7.96135 22.872C7.16104 22.5471 6.48108 22.7938 6.11402 23.7144C6.02376 23.9371 5.97562 24.1176 5.95155 24.244L8.61123 25.3151H8.61725Z" fill="white"/>
<path id="Vector_22" d="M9.93495 19.5203L9.24295 20.7418L10.3802 21.3917L11.1565 20.0257L11.4995 20.2183L10.4885 21.9994L7.33545 20.2062L8.30424 18.4973L8.64723 18.6899L7.91312 19.9836L8.912 20.5492L9.604 19.3277L9.94097 19.5203H9.93495Z" fill="white"/>
<path id="Vector_23" d="M9.27905 17.0051L9.56187 16.626L12.1674 18.5395L13.082 17.2879L13.4009 17.5226L12.2035 19.1533L9.27905 17.0051Z" fill="white"/>
<path id="Vector_24" d="M16.6203 12.0167C16.2653 11.6556 15.832 11.2224 15.5372 10.8854H15.5312C15.7117 11.2946 15.9103 11.7339 16.1028 12.2273L16.7948 13.9663L16.53 14.201L14.9415 13.3044C14.4661 13.0336 14.0569 12.7809 13.6959 12.5282H13.6898C13.9847 12.8832 14.3638 13.3465 14.7068 13.7798L15.6696 15.0073L15.3386 15.3022L13.1122 12.4259L13.5575 12.0287L15.1882 12.9313C15.5974 13.166 15.9524 13.3826 16.2713 13.5993H16.2773C16.1088 13.2563 15.9403 12.8712 15.7538 12.4199L15.0678 10.6808L15.5131 10.2837L18.0946 12.8411L17.7516 13.148L16.6263 12.0167H16.6203Z" fill="white"/>
<path id="Vector_25" d="M17.6733 8.72506L18.8287 10.5423C19.2619 11.2223 19.7493 11.3185 20.1585 11.0598C20.6098 10.777 20.7121 10.2836 20.2849 9.61563L19.1295 7.79838L19.5267 7.54565L20.664 9.33883C21.2597 10.2775 21.007 10.9756 20.3451 11.3968C19.7192 11.7939 19.0212 11.7398 18.4135 10.789L17.2642 8.9838L17.6673 8.73108L17.6733 8.72506Z" fill="white"/>
<path id="Vector_26" d="M22.7941 9.89859L21.3198 6.58302L21.7952 6.37242L23.6004 7.58191C24.0156 7.86472 24.3646 8.12347 24.6715 8.39425L24.6835 8.38222C24.4489 7.95498 24.2563 7.55784 24.0276 7.04636L23.4079 5.65635L23.811 5.47583L25.2853 8.7914L24.852 8.98395L23.0528 7.76845C22.6557 7.50368 22.2706 7.22087 21.9456 6.93203L21.9336 6.94407C22.1442 7.35325 22.3247 7.75039 22.5714 8.29797L23.2033 9.71807L22.8001 9.89859H22.7941Z" fill="white"/>
<path id="Vector_27" d="M25.7426 4.83197C26.0134 4.71162 26.3323 4.59127 26.6873 4.495C27.3372 4.32049 27.8366 4.33854 28.2217 4.53712C28.6189 4.73569 28.9137 5.09673 29.0642 5.66236C29.2206 6.23401 29.1665 6.75151 28.9318 7.16069C28.6911 7.5819 28.1977 7.90082 27.5177 8.08736C27.1928 8.17762 26.922 8.2378 26.6813 8.2739L25.7366 4.83197H25.7426ZM27.0484 7.80455C27.1687 7.79251 27.3372 7.75039 27.5117 7.70225C28.4805 7.44351 28.8536 6.75151 28.5948 5.80678C28.3722 4.97037 27.7644 4.58526 26.8077 4.844C26.573 4.91019 26.4045 4.97639 26.2902 5.03656L27.0484 7.80455Z" fill="white"/>
<path id="Vector_28" d="M32.2353 7.16058C31.2786 7.2689 30.5324 6.60699 30.4061 5.51784C30.2737 4.37455 30.8935 3.54415 31.8563 3.43584C32.8431 3.32151 33.5712 4.00147 33.6916 5.07256C33.836 6.30612 33.156 7.05829 32.2414 7.16058H32.2353ZM32.2113 6.77547C32.9514 6.69123 33.2884 5.96313 33.1981 5.14477C33.1139 4.4287 32.6566 3.72467 31.8803 3.80891C31.1041 3.89917 30.8032 4.66338 30.8935 5.44564C30.9777 6.20382 31.4772 6.85972 32.2113 6.77547Z" fill="white"/>
<path id="Vector_29" d="M37.4344 5.70458C37.1275 5.68653 36.8928 5.42177 36.9109 5.10284C36.9289 4.78994 37.1997 4.55527 37.5126 4.57933C37.8255 4.6034 38.0602 4.86215 38.0361 5.18107C38.0121 5.49397 37.7473 5.72865 37.4344 5.70458Z" fill="white"/>
<path id="Vector_30" d="M41.5562 7.55774L41.6044 3.81494L42.0858 3.94131L42.0256 5.82474C42.0135 6.2941 41.9895 6.75142 41.9594 7.10644H41.9714C42.1219 6.77548 42.3445 6.39037 42.5852 5.96916L43.5239 4.32642L43.9993 4.45278L43.9511 6.34825C43.9391 6.79354 43.9211 7.2328 43.8729 7.61792H43.8849C44.0594 7.25687 44.264 6.88981 44.4867 6.48665L45.4194 4.84391L45.8827 4.97028L43.9511 8.20762L43.4758 8.08125L43.5179 6.14366C43.5299 5.66227 43.548 5.30123 43.5961 4.93417H43.5841C43.4336 5.27114 43.2591 5.58405 43.0064 6.00526L42.0196 7.69614L41.5442 7.56978L41.5562 7.55774Z" fill="white"/>
<path id="Vector_31" d="M47.2547 9.56154C46.3822 9.15837 46.0873 8.20161 46.5447 7.20875C47.026 6.16173 47.9888 5.77662 48.8674 6.17978C49.77 6.59498 50.0347 7.55174 49.5834 8.53257C49.0599 9.66383 48.0971 9.95267 47.2607 9.56755L47.2547 9.56154ZM47.4352 9.22457C48.1092 9.53747 48.7771 9.09218 49.1201 8.34603C49.421 7.69014 49.3969 6.84771 48.6868 6.52277C47.9768 6.19783 47.3209 6.69727 46.9899 7.40732C46.671 8.09932 46.7553 8.91768 47.4232 9.22457H47.4352Z" fill="white"/>
<path id="Vector_32" d="M51.8579 7.86475C52.0806 7.95501 52.3874 8.11146 52.6582 8.28596C53.0794 8.55674 53.3021 8.81549 53.3803 9.11034C53.4465 9.339 53.3984 9.60376 53.2479 9.84446C52.9892 10.2416 52.5619 10.3439 52.1708 10.2476V10.2597C52.3393 10.4883 52.3393 10.7952 52.2129 11.1623C52.0384 11.6497 51.9181 11.9927 51.9061 12.1491L51.4969 11.8843C51.4969 11.764 51.6052 11.4631 51.7677 11.0299C51.9482 10.5485 51.882 10.2837 51.533 10.043L51.1599 9.80234L50.3054 11.1262L49.9143 10.8734L51.8519 7.87076L51.8579 7.86475ZM51.3585 9.50147L51.7616 9.76022C52.1829 10.031 52.5981 9.97684 52.8207 9.62783C53.0734 9.23671 52.8989 8.87566 52.4837 8.6109C52.2912 8.49055 52.1528 8.42436 52.0685 8.39427L51.3525 9.50147H51.3585Z" fill="white"/>
<path id="Vector_33" d="M55.1735 10.0972L55.5346 10.398L53.4646 12.8832L54.656 13.8761L54.4033 14.1769L52.8508 12.8832L55.1735 10.0972Z" fill="white"/>
<path id="Vector_34" d="M57.9053 12.5642C58.134 12.7507 58.3867 12.9734 58.6394 13.2502C59.0967 13.7436 59.3074 14.2009 59.3074 14.6342C59.3074 15.0795 59.1268 15.5007 58.6936 15.8978C58.2603 16.301 57.7729 16.4875 57.3036 16.4695C56.8222 16.4454 56.3047 16.1566 55.8293 15.6391C55.6007 15.3924 55.4201 15.1818 55.2817 14.9832L57.9053 12.5642ZM55.8594 15.0915C55.9256 15.1938 56.0399 15.3202 56.1663 15.4525C56.8402 16.1927 57.6225 16.2107 58.3446 15.5428C58.9884 14.9591 59.0486 14.2431 58.3807 13.515C58.2182 13.3344 58.0798 13.2141 57.9715 13.1419L55.8594 15.0855V15.0915Z" fill="white"/>
<path id="Vector_35" d="M59.5661 19.3519C59.5661 19.5986 59.6323 19.9115 59.7948 20.1883C60.0415 20.5975 60.4025 20.7058 60.7214 20.5133C61.0043 20.3388 61.0765 20.068 60.9802 19.5565C60.8538 18.9367 60.9321 18.4674 61.3653 18.2026C61.8467 17.9077 62.4484 18.0883 62.8155 18.696C63.008 19.0089 63.0742 19.2857 63.0802 19.4662L62.6891 19.5565C62.6891 19.4241 62.653 19.1654 62.4785 18.8826C62.2198 18.4613 61.8708 18.4553 61.6602 18.5817C61.3713 18.7562 61.3412 19.033 61.4375 19.5625C61.5518 20.2124 61.4616 20.6276 61.0043 20.9044C60.5289 21.1992 59.8971 21.103 59.4518 20.3688C59.2713 20.068 59.1629 19.6889 59.175 19.4542L59.5721 19.3579L59.5661 19.3519Z" fill="white"/>
<path id="Vector_36" d="M61.9071 24.8397C61.7627 24.7254 61.54 24.4365 61.3595 24.0394C60.9443 23.1067 61.2211 22.1439 62.3102 21.6565C63.3512 21.1871 64.3622 21.5783 64.8255 22.6072C65.006 23.0164 65.0361 23.3233 65.0301 23.4617L64.6329 23.5098C64.639 23.3173 64.5968 23.0585 64.4765 22.7817C64.1275 22.0055 63.3994 21.7107 62.5329 22.1018C61.7145 22.4688 61.4076 23.1669 61.7687 23.9672C61.889 24.2319 62.0635 24.4726 62.22 24.605L61.9131 24.8397H61.9071Z" fill="white"/>
<path id="Vector_37" d="M65.8604 25.5437L64.3982 25.965L64.8796 27.6498L66.3358 27.2286L66.4682 27.6859L62.9781 28.6848L62.8457 28.2275L64.4824 27.7581L64.001 26.0733L62.3643 26.5426L62.2319 26.0853L65.722 25.0864L65.8544 25.5437H65.8604Z" fill="white"/>
<path id="Vector_38" d="M63.4112 31.5491C63.2909 30.5923 63.9408 29.8341 65.0299 29.6957C66.1732 29.5513 67.0096 30.1591 67.13 31.1218C67.2563 32.1087 66.5824 32.8428 65.5173 32.9752C64.2838 33.1316 63.5256 32.4637 63.4112 31.5491ZM63.7903 31.525C63.8866 32.2591 64.6147 32.5901 65.4331 32.4878C66.1491 32.3975 66.8471 31.9282 66.7509 31.1519C66.6546 30.3757 65.8844 30.0869 65.1021 30.1831C64.3439 30.2794 63.7001 30.7849 63.7903 31.513V31.525Z" fill="white"/>
<path id="Vector_39" d="M63.628 35.9115C63.658 34.9488 64.4162 34.3049 65.5174 34.335C66.6667 34.3711 67.4008 35.0992 67.3708 36.068C67.3407 37.0609 66.5644 37.6806 65.4873 37.6506C64.2417 37.6145 63.5979 36.8322 63.628 35.9176V35.9115ZM64.0071 35.9476C63.983 36.6878 64.6569 37.1271 65.4813 37.1511C66.2034 37.1752 66.9676 36.8202 66.9917 36.0379C67.0157 35.2557 66.2997 34.8465 65.5114 34.8224C64.7472 34.7983 64.0311 35.1955 64.0071 35.9356V35.9476Z" fill="white"/>
<path id="Vector_40" d="M67.0398 39.4437L66.9676 39.9131L63.7724 39.4016L63.5257 40.93L63.1345 40.8698L63.4534 38.8721L67.0398 39.4437Z" fill="white"/>
<path id="Vector_41" d="M63.2851 44.8534C63.3813 44.5645 63.6942 44.4021 64.0011 44.5044C64.296 44.6006 64.4585 44.9256 64.3562 45.2204C64.2599 45.5153 63.941 45.6777 63.6401 45.5754C63.3452 45.4792 63.1828 45.1542 63.2851 44.8594V44.8534Z" fill="white"/>
<path id="Vector_42" d="M60.6253 35.0271C60.6253 48.9633 49.3307 60.2579 35.3945 60.2579C23.5463 60.2579 13.6117 52.0984 10.8978 41.0866C15.8381 41.0324 20.5196 39.9252 24.7498 37.9997V28.1793C24.7498 27.4031 24.479 26.8314 23.9375 26.4704C23.3959 26.1094 22.4391 25.9288 21.0612 25.9288V25.0202C22.8904 24.96 24.5633 24.8517 26.0917 24.6953C27.6201 24.5448 28.9319 24.3102 30.0391 24.0033L30.0631 38.2644V40.9121C30.0631 41.8388 30.0511 42.7534 30.021 43.65C29.9909 44.5466 29.9428 45.389 29.8886 46.1652C29.8285 46.9415 29.7562 47.6034 29.666 48.1389C31.1643 49.0115 32.8311 49.7275 34.6604 50.2992C36.4897 50.8708 38.1986 51.1536 39.7872 51.1536C41.1351 51.1536 42.4408 50.949 43.6985 50.5459C44.9561 50.1427 46.0753 49.553 47.0502 48.7708C48.025 47.9945 48.8132 47.0317 49.415 45.8945C50.0167 44.7572 50.3116 43.4634 50.3116 42.0253C50.3116 40.7075 50.0889 39.492 49.6376 38.3848C49.1863 37.2716 48.5545 36.3148 47.7421 35.5025C46.9298 34.6901 45.973 34.0583 44.8598 33.5889C43.7466 33.1256 42.5311 32.8909 41.2133 32.8909C40.2204 32.8909 39.2095 33.0654 38.1745 33.4144C37.1396 33.7634 36.2008 34.1907 35.3584 34.7022V30.4599C39.9015 25.7122 43.1028 19.6648 44.3303 12.9313C38.7041 10.5424 32.1873 10.2295 26.0195 12.5703C19.1717 15.1698 14.1592 20.5072 11.7643 26.8615C14.075 20.0198 19.3101 14.2251 26.5911 11.4631C32.6686 9.15845 39.017 9.36304 44.559 11.5233C44.559 11.5233 44.559 11.5112 44.559 11.5052C53.9641 15.1698 60.6374 24.3102 60.6374 35.0151L60.6253 35.0271ZM36.1106 47.9464C36.7966 49.1318 37.9639 49.7215 39.6187 49.7215C41.2735 49.7215 42.4348 49.1318 43.1268 47.9464C43.8128 46.767 44.1618 44.9016 44.1618 42.3502C44.1618 39.7989 43.8188 37.9395 43.1268 36.7541C42.4348 35.5687 41.2675 34.979 39.6187 34.979C37.9699 34.979 36.8026 35.5687 36.1106 36.7541C35.4186 37.9395 35.0756 39.8049 35.0756 42.3502C35.0756 44.8956 35.4186 46.761 36.1106 47.9464ZM29.5336 21.1751C30.2316 20.4952 30.5806 19.6407 30.5806 18.6117C30.5806 17.5828 30.2316 16.7343 29.5336 16.0483C28.8356 15.3623 27.9871 15.0254 26.9943 15.0254C26.0014 15.0254 25.153 15.3684 24.4549 16.0483C23.7569 16.7343 23.4079 17.5888 23.4079 18.6117C23.4079 19.6347 23.7569 20.4952 24.4549 21.1751C25.153 21.8611 26.0014 22.1981 26.9943 22.1981C27.9871 22.1981 28.8356 21.8551 29.5336 21.1751Z" fill="white"/>
<path id="Vector_43" d="M61.1187 12.1371C66.5403 18.2267 69.8439 26.2478 69.8439 35.0452C69.8439 54.0661 54.4214 69.4886 35.3945 69.4886C33.2102 69.4886 31.074 69.284 29.004 68.8929C31.7479 69.615 34.6363 70.0001 37.6089 70.0001C37.663 70.0001 37.7172 70.0001 37.7713 70.0001C56.016 68.7786 70.4396 53.5968 70.4396 35.0392C70.4396 29.2986 69.0556 23.871 66.6065 19.0872C65.0902 16.5298 63.2368 14.1951 61.1247 12.1311L61.1187 12.1371Z" fill="white"/>
<path id="Vector_44" d="M0.951066 35.0391C0.951066 17.9739 13.3589 3.81501 29.6419 1.07711C32.2053 0.499441 34.8709 0.192556 37.6088 0.192556C38.2467 0.192556 38.8845 0.210608 39.5164 0.240695C38.1624 0.0842431 36.7905 0 35.3945 0C16.0426 0 0.355347 15.6873 0.355347 35.0391C0.355347 43.1084 3.08723 50.5398 7.67246 56.4669C5.85522 53.7832 4.39902 50.8347 3.35801 47.6996C1.80553 43.7823 0.957083 39.51 0.957083 35.0391H0.951066Z" fill="white"/>
<path id="Vector_45" d="M71.6551 10.8854C71.6551 12.0468 70.7525 12.9554 69.5851 12.9554C68.4177 12.9554 67.5151 12.0468 67.5151 10.8854C67.5151 9.72405 68.4177 8.81543 69.5851 8.81543C70.7525 8.81543 71.6551 9.72405 71.6551 10.8854ZM67.8401 10.8854C67.8401 11.8723 68.5862 12.6605 69.5851 12.6605C70.584 12.6605 71.3301 11.8783 71.3301 10.8854C71.3301 9.89254 70.584 9.11028 69.5851 9.11028C68.5862 9.11028 67.8401 9.89254 67.8401 10.8854ZM69.1338 12.0829H68.839V9.69397H69.7536C70.2952 9.69397 70.5298 9.92864 70.5298 10.3559C70.5298 10.7831 70.253 10.9696 69.9281 11.0238L70.6382 12.0829H70.2952L69.6212 11.0238H69.1278V12.0829H69.1338ZM69.5249 10.7711C69.886 10.7711 70.241 10.759 70.241 10.3559C70.241 10.0249 69.9642 9.94669 69.6754 9.94669H69.1338V10.7771H69.5249V10.7711Z" fill="white"/>
</g>
</g>
<defs>
<clipPath id="clip0_4204_712">
<rect width="71.2998" height="70" fill="white" transform="translate(0.355347)"/>
</clipPath>
</defs>
</svg>
